Moderustic-Medium.ufo
<glyph name="exclam" format="2">
  <advance width="255"/>
  <unicode hex="0021"/>
  <outline>
    <contour>
      <point x="78" y="249" type="line"/>
      <point x="177" y="249" type="line"/>
      <point x="193" y="750" type="line"/>
      <point x="62" y="750" type="line"/>
    </contour>
    <contour>
      <point x="127" y="-20" type="curve" smooth="yes"/>
      <point x="162.161" y="-20"/>
      <point x="189.92" y="8.68398"/>
      <point x="189.92" y="43.845" type="curve" smooth="yes"/>
      <point x="189.92" y="78.0807"/>
      <point x="162.161" y="104.914"/>
      <point x="127" y="104.914" type="curve" smooth="yes"/>
      <point x="90.9137" y="104.914"/>
      <point x="64.0803" y="78.0807"/>
      <point x="64.0803" y="43.845" type="curve" smooth="yes"/>
      <point x="64.0803" y="8.68398"/>
      <point x="90.9137" y="-20"/>
    </contour>
  </outline>
</glyph>
<glyph name="numbersign" format="2">
  <advance width="830"/>
  <unicode hex="0023"/>
  <outline>
    <contour>
      <point x="127" y="0" type="line"/>
      <point x="249" y="0" type="line"/>
      <point x="291" y="205" type="line"/>
      <point x="479" y="205" type="line"/>
      <point x="437" y="0" type="line"/>
      <point x="559" y="0" type="line"/>
      <point x="601" y="205" type="line"/>
      <point x="755" y="205" type="line"/>
      <point x="755" y="255" type="line"/>
      <point x="611" y="255" type="line"/>
      <point x="649" y="440" type="line"/>
      <point x="802" y="440" type="line"/>
      <point x="802" y="490" type="line"/>
      <point x="659" y="490" type="line"/>
      <point x="702" y="700" type="line"/>
      <point x="580" y="700" type="line"/>
      <point x="537" y="490" type="line"/>
      <point x="349" y="490" type="line"/>
      <point x="392" y="700" type="line"/>
      <point x="270" y="700" type="line"/>
      <point x="228" y="490" type="line"/>
      <point x="74" y="490" type="line"/>
      <point x="74" y="440" type="line"/>
      <point x="217" y="440" type="line"/>
      <point x="179" y="255" type="line"/>
      <point x="28" y="255" type="line"/>
      <point x="28" y="205" type="line"/>
      <point x="169" y="205" type="line"/>
    </contour>
    <contour>
      <point x="301" y="255" type="line"/>
      <point x="339" y="440" type="line"/>
      <point x="527" y="440" type="line"/>
      <point x="489" y="255" type="line"/>
    </contour>
  </outline>
</glyph>
<glyph name="quotesingle" format="2">
  <advance width="204"/>
  <unicode hex="0027"/>
  <outline>
    <contour>
      <point x="63" y="566" type="line"/>
      <point x="141" y="566" type="line"/>
      <point x="156" y="803" type="line"/>
      <point x="48" y="803" type="line"/>
    </contour>
  </outline>
</glyph>
<glyph name="two" format="2">
  <advance width="632"/>
  <unicode hex="0032"/>
  <outline>
    <contour>
      <point x="82" y="85" type="line"/>
      <point x="430" y="183"/>
      <point x="548" y="312"/>
      <point x="548" y="481" type="curve" smooth="yes"/>
      <point x="548" y="628"/>
      <point x="456" y="720"/>
      <point x="310" y="720" type="curve" smooth="yes"/>
      <point x="221" y="720"/>
      <point x="139" y="685"/>
      <point x="95" y="637" type="curve"/>
      <point x="171" y="561" type="line"/>
      <point x="207" y="598"/>
      <point x="251" y="620"/>
      <point x="310" y="620" type="curve" smooth="yes"/>
      <point x="387" y="620"/>
      <point x="428" y="583"/>
      <point x="428" y="496" type="curve" smooth="yes"/>
      <point x="428" y="348"/>
      <point x="311" y="266"/>
      <point x="82" y="185" type="curve"/>
    </contour>
    <contour>
      <point x="82" y="0" type="line"/>
      <point x="548" y="0" type="line"/>
      <point x="548" y="100" type="line"/>
      <point x="82" y="100" type="line"/>
    </contour>
  </outline>
</glyph>
<glyph name="seven" format="2">
  <advance width="565"/>
  <unicode hex="0037"/>
  <outline>
    <contour>
      <point x="128" y="0" type="line"/>
      <point x="258" y="0" type="line"/>
      <point x="530" y="640" type="line"/>
      <point x="530" y="700" type="line"/>
      <point x="44" y="700" type="line"/>
      <point x="44" y="600" type="line"/>
      <point x="383" y="600" type="line"/>
    </contour>
  </outline>
</glyph>
<glyph name="C" format="2">
  <advance width="694"/>
  <unicode hex="0043"/>
  <anchor x="402" y="-20" name="bottom"/>
  <anchor x="382" y="719" name="top"/>
  <outline>
    <contour>
      <point x="576" y="173" type="line"/>
      <point x="534.407" y="117.495"/>
      <point x="473.007" y="84"/>
      <point x="394.772" y="84" type="curve" smooth="yes" name="dv02"/>
      <point x="266.031" y="84"/>
      <point x="167" y="188.623"/>
      <point x="167" y="365.299" type="curve" smooth="yes"/>
      <point x="167" y="524.208"/>
      <point x="246.225" y="616"/>
      <point x="386.85" y="616" type="curve" smooth="yes" name="dv03"/>
      <point x="462.114" y="616"/>
      <point x="523.513" y="586.989"/>
      <point x="576" y="528" type="curve"/>
      <point x="647" y="599" type="line"/>
      <point x="581" y="681"/>
      <point x="492" y="720"/>
      <point x="379" y="720" type="curve" smooth="yes" name="dv04"/>
      <point x="166" y="720"/>
      <point x="43" y="581"/>
      <point x="43" y="365" type="curve" smooth="yes"/>
      <point x="43" y="135"/>
      <point x="182" y="-20"/>
      <point x="387" y="-20" type="curve" smooth="yes" name="dv01"/>
      <point x="488" y="-20"/>
      <point x="572" y="18"/>
      <point x="647" y="102" type="curve"/>
    </contour>
  </outline>
</glyph>
<glyph name="G" format="2">
  <advance width="786"/>
  <unicode hex="0047"/>
  <anchor x="393" y="719" name="top"/>
  <anchor x="393" y="-20" name="bottom"/>
  <outline>
    <contour>
      <point x="617" y="0" type="line"/>
      <point x="721" y="0" type="line"/>
      <point x="721" y="376" type="line" name="dv06"/>
      <point x="351" y="376" type="line" name="av02"/>
      <point x="351" y="276" type="line" name="av03"/>
      <point x="617" y="276" type="line" name="dv05"/>
    </contour>
    <contour>
      <point x="641" y="243" type="curve"/>
      <point x="617" y="303" type="line" name="dv07"/>
      <point x="617" y="169.824"/>
      <point x="529.793" y="84"/>
      <point x="387.09" y="84" type="curve" smooth="yes" name="dv02"/>
      <point x="250.458" y="84"/>
      <point x="177" y="177.061"/>
      <point x="177" y="350.156" type="curve" smooth="yes"/>
      <point x="177" y="549.903"/>
      <point x="265.174" y="616"/>
      <point x="405.856" y="616" type="curve" smooth="yes" name="dv03"/>
      <point x="485.114" y="616"/>
      <point x="548.52" y="586.989"/>
      <point x="604" y="528" type="curve"/>
      <point x="675" y="599" type="line"/>
      <point x="607" y="681"/>
      <point x="505" y="720"/>
      <point x="389" y="720" type="curve" smooth="yes" name="dv04"/>
      <point x="182" y="720"/>
      <point x="53" y="597"/>
      <point x="53" y="350" type="curve" smooth="yes"/>
      <point x="53" y="105"/>
      <point x="189" y="-20"/>
      <point x="369" y="-20" type="curve" smooth="yes" name="dv01"/>
      <point x="563" y="-20"/>
      <point x="641" y="124"/>
    </contour>
  </outline>
</glyph>
<glyph name="K" format="2">
  <advance width="670"/>
  <unicode hex="004B"/>
  <anchor x="335" y="719" name="top"/>
  <anchor x="335" y="-20" name="bottom"/>
  <outline>
    <contour>
      <point x="78" y="0" type="line" name="ab01"/>
      <point x="78" y="700" type="line" name="at01"/>
      <point x="198" y="700" type="line"/>
      <point x="198" y="0" type="line"/>
    </contour>
    <contour>
      <point x="110" y="312" type="line"/>
      <point x="101" y="410" type="line"/>
      <point x="327" y="410" type="line"/>
      <point x="488" y="700" type="line"/>
      <point x="629" y="700" type="line"/>
      <point x="421" y="367" type="line"/>
      <point x="633" y="0" type="line"/>
      <point x="493" y="0" type="line"/>
      <point x="320" y="312" type="line"/>
    </contour>
  </outline>
</glyph>
<glyph name="e" format="2">
  <advance width="598"/>
  <unicode hex="0065"/>
  <anchor x="299" y="520" name="top"/>
  <anchor x="299" y="-20" name="bottom"/>
  <anchor x="421" y="-2" name="ogonek"/>
  <outline>
    <contour>
      <point x="172" y="307" type="line" name="sv02"/>
      <point x="181" y="385.639"/>
      <point x="232.207" y="430"/>
      <point x="303.496" y="430" type="curve" smooth="yes" name="sv01"/>
      <point x="373.78" y="430"/>
      <point x="418.963" y="385.639"/>
      <point x="428" y="307" type="curve" name="dv04"/>
    </contour>
    <contour>
      <point x="459" y="138" type="line"/>
      <point x="427.893" y="94.3582"/>
      <point x="363.672" y="70"/>
      <point x="303.466" y="70" type="curve" smooth="yes" name="dv02"/>
      <point x="213.155" y="70"/>
      <point x="168" y="125.353"/>
      <point x="168" y="227" type="curve" name="sv04"/>
      <point x="551" y="227" type="line" name="dv03"/>
      <point x="551" y="424"/>
      <point x="462" y="520"/>
      <point x="305" y="520" type="curve" smooth="yes" name="at01"/>
      <point x="151" y="520"/>
      <point x="48" y="427"/>
      <point x="48" y="251" type="curve" smooth="yes" name="sv03"/>
      <point x="48" y="72"/>
      <point x="154" y="-20"/>
      <point x="310" y="-20" type="curve" smooth="yes" name="dv01"/>
      <point x="409" y="-20"/>
      <point x="485" y="17"/>
      <point x="527" y="70" type="curve"/>
    </contour>
  </outline>
</glyph>
<glyph name="g" format="2">
  <advance width="634"/>
  <unicode hex="0067"/>
  <anchor x="301" y="-220" name="bottom"/>
  <anchor x="317" y="520" name="top"/>
  <outline>
    <contour>
      <point x="265" y="-20" type="curve" smooth="yes" name="dv01"/>
      <point x="389" y="-20"/>
      <point x="454" y="88"/>
      <point x="454" y="253" type="curve" smooth="yes"/>
      <point x="454" y="422"/>
      <point x="386" y="520"/>
      <point x="259" y="520" type="curve" smooth="yes" name="at01"/>
      <point x="125" y="520"/>
      <point x="50" y="411"/>
      <point x="50" y="259" type="curve" smooth="yes"/>
      <point x="50" y="99"/>
      <point x="134" y="-20"/>
    </contour>
    <contour>
      <point x="296" y="70" type="curve" smooth="yes" name="dv02"/>
      <point x="220" y="70"/>
      <point x="170" y="143.203"/>
      <point x="170" y="256.518" type="curve" smooth="yes"/>
      <point x="170" y="365.822"/>
      <point x="216" y="430"/>
      <point x="293" y="430" type="curve" smooth="yes" name="sv01"/>
      <point x="374" y="430"/>
      <point x="431" y="357.799"/>
      <point x="431" y="253.51" type="curve" smooth="yes"/>
      <point x="431" y="151.226"/>
      <point x="376" y="70"/>
    </contour>
    <contour>
      <point x="77" y="-130" type="line"/>
      <point x="119" y="-183"/>
      <point x="195" y="-220"/>
      <point x="297" y="-220" type="curve" smooth="yes"/>
      <point x="465" y="-220"/>
      <point x="551" y="-121"/>
      <point x="551" y="52" type="curve" smooth="yes"/>
      <point x="551" y="500" type="line" name="av01"/>
      <point x="431" y="500" type="line"/>
      <point x="431" y="50.2862" type="line" smooth="yes"/>
      <point x="431" y="-98.9507"/>
      <point x="368" y="-130"/>
      <point x="296" y="-130" type="curve" smooth="yes"/>
      <point x="233" y="-130"/>
      <point x="176" y="-105.642"/>
      <point x="145" y="-62" type="curve"/>
    </contour>
  </outline>
</glyph>
<glyph name="k" format="2">
  <advance width="594"/>
  <unicode hex="006B"/>
  <anchor x="297" y="-20" name="bottom"/>
  <anchor x="135" y="750" name="top"/>
  <outline>
    <contour>
      <point x="74" y="0" type="line" name="sv03"/>
      <point x="194" y="0" type="line" name="ab02"/>
      <point x="194" y="750" type="line" name="ab01"/>
      <point x="74" y="750" type="line"/>
    </contour>
    <contour>
      <point x="95" y="222" type="line"/>
      <point x="323" y="222" type="line" name="iv01"/>
      <point x="422" y="0" type="line" name="ab02"/>
      <point x="558" y="0" type="line"/>
      <point x="418" y="263" type="line"/>
      <point x="544" y="500" type="line" name="av02"/>
      <point x="419" y="500" type="line"/>
      <point x="331" y="312" type="line" name="iv02"/>
      <point x="88" y="312" type="line"/>
    </contour>
  </outline>
</glyph>
<glyph name="u" format="2">
  <advance width="600"/>
  <unicode hex="0075"/>
  <anchor x="300" y="520" name="top"/>
  <anchor x="300" y="-20" name="bottom"/>
  <anchor x="401" y="-2" name="ogonek"/>
  <outline>
    <contour>
      <point x="76" y="500" type="line" name="av01"/>
      <point x="76" y="185" type="line" smooth="yes"/>
      <point x="76" y="62"/>
      <point x="159" y="-20"/>
      <point x="300" y="-20" type="curve" smooth="yes" name="dv01"/>
      <point x="442" y="-20"/>
      <point x="523" y="65"/>
      <point x="523" y="185" type="curve" smooth="yes"/>
      <point x="523" y="500" type="line" name="av02"/>
      <point x="403" y="500" type="line"/>
      <point x="403" y="198.298" type="line" smooth="yes"/>
      <point x="403" y="109.091"/>
      <point x="366" y="70"/>
      <point x="301" y="70" type="curve" smooth="yes" name="dv02"/>
      <point x="237" y="70"/>
      <point x="196" y="106.084"/>
      <point x="196" y="198.298" type="curve" smooth="yes"/>
      <point x="196" y="500" type="line"/>
    </contour>
  </outline>
</glyph>
<glyph name="y" format="2">
  <advance width="626"/>
  <unicode hex="0079"/>
  <anchor x="313" y="520" name="top"/>
  <anchor x="536" y="-59" name="bottom"/>
  <outline>
    <contour>
      <point x="423" y="263" type="line" name="iv01"/>
      <point x="423" y="151"/>
      <point x="380" y="90"/>
      <point x="296" y="90" type="curve" smooth="yes" name="sv01"/>
      <point x="213" y="90"/>
      <point x="194" y="150"/>
      <point x="194" y="258" type="curve" smooth="yes"/>
      <point x="194" y="500" type="line" name="av01"/>
      <point x="74" y="500" type="line"/>
      <point x="74" y="216" type="line" smooth="yes"/>
      <point x="74" y="83"/>
      <point x="143" y="0"/>
      <point x="256" y="0" type="curve" smooth="yes" name="ab01"/>
      <point x="356" y="0"/>
      <point x="418" y="66"/>
      <point x="438" y="147" type="curve"/>
    </contour>
    <contour>
      <point x="69" y="-130" type="line"/>
      <point x="111" y="-183"/>
      <point x="187" y="-220"/>
      <point x="289" y="-220" type="curve" smooth="yes"/>
      <point x="457" y="-220"/>
      <point x="543" y="-121"/>
      <point x="543" y="52" type="curve" smooth="yes"/>
      <point x="543" y="500" type="line" name="av01"/>
      <point x="423" y="500" type="line"/>
      <point x="423" y="50.2862" type="line" smooth="yes"/>
      <point x="423" y="-98.9507"/>
      <point x="360" y="-130"/>
      <point x="288" y="-130" type="curve" smooth="yes"/>
      <point x="225" y="-130"/>
      <point x="168" y="-105.642"/>
      <point x="137" y="-62" type="curve"/>
    </contour>
  </outline>
</glyph>
<glyph name="yen" format="2">
  <advance width="662"/>
  <unicode hex="00A5"/>
  <outline>
    <contour>
      <point x="130" y="117" type="line"/>
      <point x="533" y="117" type="line"/>
      <point x="533" y="152" type="line"/>
      <point x="130" y="152" type="line"/>
    </contour>
    <contour>
      <point x="130" y="248" type="line"/>
      <point x="533" y="248" type="line"/>
      <point x="533" y="283" type="line"/>
      <point x="130" y="283" type="line"/>
    </contour>
    <contour>
      <point x="271" y="0" type="line" name="ab01"/>
      <point x="391" y="0" type="line"/>
      <point x="391" y="295" type="line" name="iv04"/>
      <point x="634" y="700" type="line" name="at01"/>
      <point x="494" y="700" type="line"/>
      <point x="331" y="418" type="line" name="iv05"/>
      <point x="168" y="700" type="line" name="at02"/>
      <point x="28" y="700" type="line"/>
      <point x="271" y="295" type="line" name="iv01"/>
    </contour>
  </outline>
</glyph>
<glyph name="germandbls" format="2">
  <advance width="725"/>
  <unicode hex="00DF"/>
  <outline>
    <contour>
      <point x="84" y="0" type="line"/>
      <point x="84" y="545" type="line" smooth="yes"/>
      <point x="84" y="680"/>
      <point x="191" y="749"/>
      <point x="335" y="749" type="curve" smooth="yes"/>
      <point x="472" y="749"/>
      <point x="563" y="687"/>
      <point x="563" y="585" type="curve" smooth="yes"/>
      <point x="563" y="472"/>
      <point x="451" y="445"/>
      <point x="451" y="383" type="curve" smooth="yes"/>
      <point x="451" y="297"/>
      <point x="667" y="306"/>
      <point x="667" y="146" type="curve" smooth="yes"/>
      <point x="667" y="48"/>
      <point x="586" y="-20"/>
      <point x="466" y="-20" type="curve" smooth="yes"/>
      <point x="385" y="-20"/>
      <point x="312" y="11"/>
      <point x="268" y="74" type="curve"/>
      <point x="332" y="138" type="line"/>
      <point x="369" y="92.3284"/>
      <point x="400" y="70"/>
      <point x="454" y="70" type="curve" smooth="yes"/>
      <point x="507" y="70"/>
      <point x="550" y="91.0357"/>
      <point x="550" y="140.119" type="curve" smooth="yes"/>
      <point x="550" y="249.304"/>
      <point x="331" y="244.296"/>
      <point x="331" y="367.505" type="curve" smooth="yes"/>
      <point x="331" y="455.655"/>
      <point x="443" y="495.723"/>
      <point x="443" y="581.869" type="curve" smooth="yes"/>
      <point x="443" y="637.964"/>
      <point x="396" y="659"/>
      <point x="340" y="659" type="curve" smooth="yes"/>
      <point x="252" y="659"/>
      <point x="204" y="607"/>
      <point x="204" y="515" type="curve" smooth="yes"/>
      <point x="204" y="0" type="line"/>
    </contour>
  </outline>
</glyph>
<glyph name="eth" format="2">
  <advance width="636"/>
  <unicode hex="00F0"/>
  <outline>
    <contour>
      <point x="152" y="631" type="line"/>
      <point x="183.78" y="617.05"/>
      <point x="218.83" y="598.29"/>
      <point x="253.95" y="576.58" type="curve"/>
      <point x="156" y="539" type="line"/>
      <point x="174" y="497" type="line"/>
      <point x="294.67" y="550.09" type="line"/>
      <point x="369.14" y="499.18"/>
      <point x="438.28" y="438.01"/>
      <point x="470.64" y="384.95" type="curve"/>
      <point x="439.92" y="434.91"/>
      <point x="380.83" y="471"/>
      <point x="298" y="471" type="curve" smooth="yes"/>
      <point x="167" y="471"/>
      <point x="59" y="377"/>
      <point x="59" y="230" type="curve" smooth="yes"/>
      <point x="59" y="85"/>
      <point x="163" y="-20"/>
      <point x="318" y="-20" type="curve" smooth="yes"/>
      <point x="470" y="-20"/>
      <point x="577" y="82"/>
      <point x="577" y="257" type="curve" smooth="yes"/>
      <point x="577" y="374.15"/>
      <point x="540.67" y="480.31"/>
      <point x="392.3" y="590.54" type="curve"/>
      <point x="506" y="634" type="line"/>
      <point x="488" y="677" type="line"/>
      <point x="354.07" y="617.39" type="line"/>
      <point x="309.33" y="647.12"/>
      <point x="256.14" y="677.22"/>
      <point x="193" y="708" type="curve"/>
    </contour>
    <contour>
      <point x="315" y="71" type="curve" smooth="yes"/>
      <point x="234" y="71"/>
      <point x="179" y="127"/>
      <point x="179" y="225" type="curve" smooth="yes"/>
      <point x="179" y="321"/>
      <point x="231" y="381"/>
      <point x="318" y="381" type="curve" smooth="yes"/>
      <point x="400" y="381"/>
      <point x="457" y="327"/>
      <point x="457" y="231" type="curve" smooth="yes"/>
      <point x="457" y="138"/>
      <point x="403" y="71"/>
    </contour>
  </outline>
</glyph>
<glyph name="iogonek" format="2">
  <advance width="272"/>
  <unicode hex="012F"/>
  <anchor x="136" y="-20" name="bottom"/>
  <anchor x="136" y="689" name="top"/>
  <outline>
    <contour>
      <point x="76" y="0" type="line"/>
      <point x="196" y="0" type="line"/>
      <point x="196" y="500" type="line"/>
      <point x="76" y="500" type="line"/>
    </contour>
    <contour>
      <point x="72" y="637" type="curve" smooth="yes"/>
      <point x="72" y="609"/>
      <point x="94" y="574"/>
      <point x="138" y="574" type="curve" smooth="yes" name="dv01"/>
      <point x="180" y="574"/>
      <point x="201" y="605"/>
      <point x="201" y="637" type="curve" smooth="yes"/>
      <point x="201" y="669"/>
      <point x="180" y="698"/>
      <point x="138" y="698" type="curve" smooth="yes" name="dv02"/>
      <point x="94" y="698"/>
      <point x="72" y="665"/>
    </contour>
    <contour>
      <point x="197" y="-182" type="line"/>
      <point x="153" y="-168"/>
      <point x="131" y="-137"/>
      <point x="131" y="-103" type="curve" smooth="yes"/>
      <point x="131" y="-66"/>
      <point x="156" y="-24"/>
      <point x="196" y="0" type="curve"/>
      <point x="173" y="3" type="line"/>
      <point x="90" y="-13"/>
      <point x="38" y="-55"/>
      <point x="38" y="-109" type="curve" smooth="yes"/>
      <point x="38" y="-158"/>
      <point x="82" y="-195"/>
      <point x="150" y="-205" type="curve"/>
    </contour>
  </outline>
</glyph>
<glyph name="OE" format="2">
  <advance width="968"/>
  <unicode hex="0152"/>
  <anchor x="484" y="719" name="top"/>
  <anchor x="484" y="-20" name="bottom"/>
  <outline>
    <contour>
      <point x="490.13" y="100" type="line" name="sv01"/>
      <point x="421.365" y="100" type="line" smooth="yes"/>
      <point x="277.912" y="100"/>
      <point x="177" y="197"/>
      <point x="177" y="349" type="curve" smooth="yes"/>
      <point x="177" y="499"/>
      <point x="274.944" y="600"/>
      <point x="421.365" y="600" type="curve" smooth="yes"/>
      <point x="490.13" y="600" type="line" name="sv02"/>
    </contour>
    <contour>
      <point x="600.13" y="0" type="line" name="ab01"/>
      <point x="600.13" y="700" type="line"/>
      <point x="401" y="700" type="line" smooth="yes" name="at01"/>
      <point x="195" y="700"/>
      <point x="53" y="558"/>
      <point x="53" y="350" type="curve" smooth="yes"/>
      <point x="53" y="141"/>
      <point x="194" y="0"/>
      <point x="401" y="0" type="curve" smooth="yes"/>
    </contour>
    <contour>
      <point x="501.13" y="0" type="line"/>
      <point x="912.13" y="0" type="line" name="ab01"/>
      <point x="912.13" y="100" type="line" name="sv01"/>
      <point x="611.13" y="100" type="line"/>
      <point x="611.13" y="315" type="line" name="dv01"/>
      <point x="872.13" y="315" type="line"/>
      <point x="872.13" y="415" type="line"/>
      <point x="611.13" y="415" type="line" name="dv02"/>
      <point x="611.13" y="600" type="line" name="sv02"/>
      <point x="897.13" y="600" type="line"/>
      <point x="897.13" y="700" type="line" name="at01"/>
      <point x="501.13" y="700" type="line"/>
    </contour>
  </outline>
</glyph>
<glyph name="tcedilla" format="2">
  <advance width="365"/>
  <unicode hex="0163"/>
  <anchor x="167" y="630" name="top"/>
  <anchor x="262" y="700" name="topright"/>
  <anchor x="200" y="-218" name="bottom"/>
  <outline>
    <contour>
      <point x="15" y="410" type="line" name="dv03"/>
      <point x="325" y="410" type="line"/>
      <point x="325" y="500" type="line"/>
      <point x="15" y="500" type="line" name="dv04"/>
    </contour>
    <contour>
      <point x="329" y="89" type="line"/>
      <point x="297" y="74.2632"/>
      <point x="282" y="69"/>
      <point x="266" y="69" type="curve" smooth="yes" name="dv02"/>
      <point x="235" y="69"/>
      <point x="225" y="88.0339"/>
      <point x="225" y="148.141" type="curve" smooth="yes"/>
      <point x="225" y="620" type="line" name="av01"/>
      <point x="105" y="620" type="line"/>
      <point x="105" y="132" type="line" smooth="yes"/>
      <point x="105" y="29"/>
      <point x="146" y="-21"/>
      <point x="228" y="-21" type="curve" smooth="yes" name="dv01"/>
      <point x="263" y="-21"/>
      <point x="298" y="-12"/>
      <point x="348" y="7" type="curve"/>
    </contour>
    <contour>
      <point x="93" y="-205" type="line"/>
      <point x="119" y="-211"/>
      <point x="148" y="-218"/>
      <point x="189" y="-218" type="curve" smooth="yes"/>
      <point x="272" y="-218"/>
      <point x="319" y="-189"/>
      <point x="319" y="-136" type="curve" smooth="yes"/>
      <point x="319" y="-89"/>
      <point x="283" y="-64"/>
      <point x="223" y="-64" type="curve"/>
      <point x="265.784" y="13.5458" type="line"/>
      <point x="192.784" y="13.5458" type="line"/>
      <point x="140" y="-90" type="line"/>
      <point x="155" y="-88"/>
      <point x="166" y="-86"/>
      <point x="179" y="-86" type="curve" smooth="yes"/>
      <point x="214" y="-86"/>
      <point x="235" y="-101"/>
      <point x="235" y="-130" type="curve" smooth="yes"/>
      <point x="235" y="-158"/>
      <point x="215" y="-177"/>
      <point x="179" y="-177" type="curve" smooth="yes"/>
      <point x="161" y="-177"/>
      <point x="133" y="-172"/>
      <point x="112" y="-166" type="curve"/>
    </contour>
  </outline>
</glyph>
<glyph name="acutecomb" format="2">
  <advance width="287"/>
  <unicode hex="0301"/>
  <anchor x="143" y="700" name="top"/>
  <anchor x="127" y="500" name="_top"/>
  <outline>
    <contour>
      <point x="83" y="550" type="line"/>
      <point x="167" y="550" type="line"/>
      <point x="268" y="701" type="line"/>
      <point x="154" y="701" type="line"/>
    </contour>
  </outline>
</glyph>
<glyph name="lownumeralsign" format="2">
  <advance width="241"/>
  <unicode hex="0375"/>
  <outline>
    <contour>
      <point x="24" y="-149" type="line"/>
      <point x="133" y="-149" type="line"/>
      <point x="212" y="68" type="line"/>
      <point x="145" y="68" type="line"/>
    </contour>
  </outline>
</glyph>
<glyph name="Delta" format="2">
  <advance width="655"/>
  <unicode hex="0394"/>
  <outline>
    <contour>
      <point x="133" y="0" type="line" name="dv01"/>
      <point x="519" y="0" type="line"/>
      <point x="485" y="100" type="line" name="dv03"/>
      <point x="167" y="100" type="line" name="dv02"/>
    </contour>
    <contour>
      <point x="22" y="0" type="line"/>
      <point x="148" y="0" type="line"/>
      <point x="362" y="700" type="line"/>
      <point x="249" y="700" type="line"/>
    </contour>
    <contour>
      <point x="507" y="0" type="line"/>
      <point x="633" y="0" type="line"/>
      <point x="406" y="700" type="line"/>
      <point x="293" y="700" type="line"/>
    </contour>
  </outline>
</glyph>
<glyph name="xi" format="2">
  <advance width="529"/>
  <unicode hex="03BE"/>
  <outline>
    <contour>
      <point x="82" y="610" type="line"/>
      <point x="82" y="700" type="line"/>
      <point x="425" y="700" type="line"/>
      <point x="425" y="610" type="line"/>
    </contour>
    <contour>
      <point x="345" y="-200" type="line"/>
      <point x="370" y="-166"/>
      <point x="387" y="-143"/>
      <point x="387" y="-98" type="curve" smooth="yes"/>
      <point x="387" y="-53"/>
      <point x="354.954" y="-20"/>
      <point x="279.491" y="-20" type="curve" smooth="yes"/>
      <point x="127.531" y="-20"/>
      <point x="50" y="48.1794"/>
      <point x="50" y="151.346" type="curve" smooth="yes"/>
      <point x="50" y="252.718"/>
      <point x="127" y="320"/>
      <point x="258" y="324" type="curve"/>
      <point x="141" y="342"/>
      <point x="85" y="393.515"/>
      <point x="85" y="468.263" type="curve" smooth="yes"/>
      <point x="85" y="561.192"/>
      <point x="188" y="628.869"/>
      <point x="418" y="642" type="curve"/>
      <point x="420" y="630"/>
      <point x="424" y="610"/>
      <point x="424" y="610" type="curve"/>
      <point x="272" y="597.903"/>
      <point x="205" y="556.571"/>
      <point x="205" y="473.907" type="curve" smooth="yes"/>
      <point x="205" y="400.316"/>
      <point x="280" y="361"/>
      <point x="423" y="361" type="curve"/>
      <point x="423" y="281" type="line"/>
      <point x="260" y="281"/>
      <point x="170" y="241.545"/>
      <point x="170" y="153.199" type="curve" smooth="yes"/>
      <point x="170" y="100.02"/>
      <point x="203" y="70"/>
      <point x="280" y="70" type="curve" smooth="yes"/>
      <point x="416" y="70"/>
      <point x="496" y="0.258301"/>
      <point x="496" y="-94.3911" type="curve" smooth="yes"/>
      <point x="496" y="-143.21"/>
      <point x="475.494" y="-181.07"/>
      <point x="456.852" y="-200" type="curve"/>
    </contour>
  </outline>
</glyph>
<glyph name="rho" format="2">
  <advance width="630"/>
  <unicode hex="03C1"/>
  <anchor x="322" y="520" name="topgr"/>
  <outline>
    <contour>
      <point x="83" y="-200" type="line"/>
      <point x="203" y="-200" type="line"/>
      <point x="203" y="274" type="line"/>
      <point x="83" y="251" type="line"/>
    </contour>
    <contour>
      <point x="93" y="250" type="line"/>
      <point x="121" y="231"/>
      <point x="148" y="207"/>
      <point x="175" y="192" type="curve"/>
      <point x="165" y="70"/>
      <point x="232" y="-20"/>
      <point x="353" y="-20" type="curve" smooth="yes"/>
      <point x="486" y="-20"/>
      <point x="580" y="90"/>
      <point x="580" y="257" type="curve" smooth="yes"/>
      <point x="580" y="423"/>
      <point x="488" y="520"/>
      <point x="326" y="520" type="curve" smooth="yes"/>
      <point x="159" y="520"/>
      <point x="83" y="417"/>
      <point x="83" y="247" type="curve"/>
    </contour>
    <contour>
      <point x="328" y="70" type="curve" smooth="yes" name="dv02"/>
      <point x="245" y="70"/>
      <point x="203" y="132.346"/>
      <point x="203" y="255.028" type="curve" smooth="yes"/>
      <point x="203" y="373.687"/>
      <point x="244" y="430"/>
      <point x="330" y="430" type="curve" smooth="yes" name="sv01"/>
      <point x="417" y="430"/>
      <point x="461" y="369.665"/>
      <point x="461" y="253.017" type="curve" smooth="yes"/>
      <point x="461" y="135.363"/>
      <point x="414" y="70"/>
    </contour>
  </outline>
</glyph>
<glyph name="Ljecyr" format="2">
  <advance width="1014"/>
  <unicode hex="0409"/>
  <outline>
    <contour>
      <point x="29" y="9" type="line"/>
      <point x="68" y="-14"/>
      <point x="90" y="-20"/>
      <point x="126" y="-20" type="curve" smooth="yes"/>
      <point x="252.847" y="-20"/>
      <point x="295.838" y="52.1721"/>
      <point x="306.828" y="370.324" type="curve" smooth="yes"/>
      <point x="309.094" y="435.919"/>
      <point x="310" y="511.97"/>
      <point x="310" y="600" type="curve"/>
      <point x="523" y="600" type="line"/>
      <point x="523" y="0" type="line"/>
      <point x="715" y="0" type="line" smooth="yes"/>
      <point x="904" y="0"/>
      <point x="965" y="98.6154"/>
      <point x="965" y="223.785" type="curve" smooth="yes"/>
      <point x="965" y="350.062"/>
      <point x="903" y="432"/>
      <point x="709" y="432" type="curve" smooth="yes"/>
      <point x="643" y="432" type="line"/>
      <point x="643" y="700" type="line"/>
      <point x="190" y="700" type="line"/>
      <point x="190" y="613.754"/>
      <point x="189.655" y="538.611"/>
      <point x="188.754" y="473.342" type="curve" smooth="yes"/>
      <point x="184.567" y="170.064"/>
      <point x="168.374" y="80"/>
      <point x="119" y="80" type="curve" smooth="yes"/>
      <point x="103" y="80"/>
      <point x="82" y="90"/>
      <point x="50" y="108" type="curve"/>
    </contour>
    <contour>
      <point x="643" y="100" type="line"/>
      <point x="643" y="332" type="line"/>
      <point x="691" y="332" type="line" smooth="yes"/>
      <point x="809" y="332"/>
      <point x="845" y="303.916"/>
      <point x="845" y="217.221" type="curve" smooth="yes"/>
      <point x="845" y="128.084"/>
      <point x="807" y="100"/>
      <point x="681" y="100" type="curve" smooth="yes"/>
    </contour>
  </outline>
</glyph>
<glyph name="Becyr" format="2">
  <advance width="633"/>
  <unicode hex="0411"/>
  <outline>
    <contour>
      <point x="118" y="599" type="line"/>
      <point x="540" y="599" type="line"/>
      <point x="540" y="700" type="line"/>
      <point x="105" y="700" type="line"/>
      <point x="105" y="694" type="line"/>
    </contour>
    <contour>
      <point x="87" y="0" type="line"/>
      <point x="343" y="0" type="line" smooth="yes"/>
      <point x="490" y="0"/>
      <point x="584" y="85"/>
      <point x="584" y="217" type="curve" smooth="yes"/>
      <point x="584" y="349"/>
      <point x="490" y="429"/>
      <point x="343" y="429" type="curve" smooth="yes"/>
      <point x="207" y="429" type="line"/>
      <point x="207" y="700" type="line"/>
      <point x="87" y="700" type="line"/>
    </contour>
    <contour>
      <point x="207" y="100" type="line"/>
      <point x="207" y="329" type="line"/>
      <point x="341" y="329" type="line" smooth="yes"/>
      <point x="431" y="329"/>
      <point x="464" y="289"/>
      <point x="464" y="217" type="curve" smooth="yes"/>
      <point x="464" y="145"/>
      <point x="431" y="100"/>
      <point x="341" y="100" type="curve" smooth="yes"/>
    </contour>
  </outline>
</glyph>
<glyph name="Pecyr" format="2">
  <advance width="700"/>
  <unicode hex="041F"/>
  <anchor x="350" y="-20" name="bottom"/>
  <anchor x="350" y="719" name="top"/>
  <outline>
    <contour>
      <point x="87" y="0" type="line"/>
      <point x="207" y="0" type="line"/>
      <point x="207" y="600" type="line"/>
      <point x="493" y="600" type="line"/>
      <point x="493" y="0" type="line"/>
      <point x="613" y="0" type="line"/>
      <point x="613" y="700" type="line"/>
      <point x="87" y="700" type="line"/>
    </contour>
  </outline>
</glyph>
<glyph name="Checyr" format="2">
  <advance width="674"/>
  <unicode hex="0427"/>
  <anchor x="337" y="719" name="top"/>
  <outline>
    <contour>
      <point x="467" y="0" type="line"/>
      <point x="587" y="0" type="line"/>
      <point x="587" y="700" type="line"/>
      <point x="467" y="700" type="line"/>
    </contour>
    <contour>
      <point x="467" y="451" type="line"/>
      <point x="467" y="369"/>
      <point x="402" y="306"/>
      <point x="311" y="306" type="curve" smooth="yes"/>
      <point x="230" y="306"/>
      <point x="190" y="356"/>
      <point x="190" y="450" type="curve" smooth="yes"/>
      <point x="190" y="700" type="line"/>
      <point x="70" y="700" type="line"/>
      <point x="70" y="427" type="line" smooth="yes"/>
      <point x="70" y="278"/>
      <point x="152" y="206"/>
      <point x="273" y="206" type="curve" smooth="yes"/>
      <point x="396" y="206"/>
      <point x="469" y="281"/>
      <point x="478" y="364" type="curve"/>
    </contour>
  </outline>
</glyph>
<glyph name="encyr" format="2">
  <advance width="613"/>
  <unicode hex="043D"/>
  <anchor x="306" y="-20" name="bottom"/>
  <anchor x="306" y="520" name="top"/>
  <outline>
    <contour>
      <point x="80" y="0" type="line"/>
      <point x="200" y="0" type="line"/>
      <point x="200" y="225" type="line"/>
      <point x="413" y="225" type="line"/>
      <point x="413" y="0" type="line"/>
      <point x="533" y="0" type="line"/>
      <point x="533" y="500" type="line"/>
      <point x="413" y="500" type="line"/>
      <point x="413" y="315" type="line"/>
      <point x="200" y="315" type="line"/>
      <point x="200" y="500" type="line"/>
      <point x="80" y="500" type="line"/>
    </contour>
  </outline>
</glyph>
<glyph name="tecyr" format="2">
  <advance width="525"/>
  <unicode hex="0442"/>
  <anchor x="262" y="-20" name="bottom"/>
  <anchor x="263" y="520" name="top"/>
  <outline>
    <contour>
      <point x="202.5" y="0" type="line"/>
      <point x="322.5" y="0" type="line"/>
      <point x="322.5" y="410" type="line"/>
      <point x="493" y="410" type="line"/>
      <point x="493" y="500" type="line"/>
      <point x="32" y="500" type="line"/>
      <point x="32" y="410" type="line"/>
      <point x="202.5" y="410" type="line"/>
    </contour>
  </outline>
</glyph>
<glyph name="yacyr" format="2">
  <advance width="570"/>
  <unicode hex="044F"/>
  <anchor x="300" y="-20" name="bottom"/>
  <anchor x="300" y="520" name="top"/>
  <outline>
    <contour>
      <point x="57" y="0" type="line"/>
      <point x="186" y="0" type="line"/>
      <point x="268" y="172" type="line"/>
      <point x="370" y="172" type="line"/>
      <point x="370" y="0" type="line"/>
      <point x="490" y="0" type="line"/>
      <point x="490" y="500" type="line"/>
      <point x="271" y="500" type="line" smooth="yes"/>
      <point x="136" y="500"/>
      <point x="66" y="445"/>
      <point x="66" y="347" type="curve" smooth="yes"/>
      <point x="66" y="280"/>
      <point x="99" y="229"/>
      <point x="157" y="196" type="curve"/>
    </contour>
    <contour>
      <point x="370" y="262" type="line"/>
      <point x="295" y="262" type="line" smooth="yes"/>
      <point x="220" y="262"/>
      <point x="186" y="286"/>
      <point x="186" y="337" type="curve" smooth="yes"/>
      <point x="186" y="388"/>
      <point x="219" y="410"/>
      <point x="295" y="410" type="curve" smooth="yes"/>
      <point x="370" y="410" type="line"/>
    </contour>
  </outline>
</glyph>
<glyph name="dzhecyr" format="2">
  <advance width="605"/>
  <unicode hex="045F"/>
  <outline>
    <contour>
      <point x="80" y="0" type="line"/>
      <point x="259" y="0" type="line"/>
      <point x="274" y="-42"/>
      <point x="272" y="-97"/>
      <point x="263" y="-141" type="curve"/>
      <point x="352" y="-141" type="line"/>
      <point x="368" y="-88"/>
      <point x="364" y="-52"/>
      <point x="346" y="0" type="curve"/>
      <point x="525" y="0" type="line"/>
      <point x="525" y="500" type="line"/>
      <point x="405" y="500" type="line"/>
      <point x="405" y="91" type="line"/>
      <point x="200" y="91" type="line"/>
      <point x="200" y="500" type="line"/>
      <point x="80" y="500" type="line"/>
    </contour>
  </outline>
</glyph>
<glyph name="quotesinglbase" format="2">
  <advance width="308"/>
  <unicode hex="201A"/>
  <outline>
    <contour>
      <point x="104" y="-145" type="line"/>
      <point x="179" y="-108"/>
      <point x="224" y="-37"/>
      <point x="224" y="31" type="curve" smooth="yes"/>
      <point x="224" y="87"/>
      <point x="194" y="118"/>
      <point x="154" y="118" type="curve" smooth="yes"/>
      <point x="115" y="118"/>
      <point x="86" y="88"/>
      <point x="86" y="51" type="curve" smooth="yes"/>
      <point x="86" y="12"/>
      <point x="118" y="-20"/>
      <point x="156" y="-20" type="curve" smooth="yes"/>
      <point x="166" y="-20"/>
      <point x="175" y="-18"/>
      <point x="187" y="-13" type="curve"/>
      <point x="180" y="-54"/>
      <point x="141" y="-105"/>
      <point x="95" y="-133" type="curve"/>
    </contour>
  </outline>
</glyph>
<glyph name="zero.superior" format="2">
  <advance width="438"/>
  <unicode hex="2070"/>
  <outline>
    <contour>
      <point x="222" y="336" type="curve" smooth="yes"/>
      <point x="337" y="336"/>
      <point x="398" y="421"/>
      <point x="398" y="585" type="curve" smooth="yes"/>
      <point x="398" y="748"/>
      <point x="337" y="834"/>
      <point x="224" y="834" type="curve" smooth="yes"/>
      <point x="107" y="834"/>
      <point x="42" y="742"/>
      <point x="42" y="581" type="curve" smooth="yes"/>
      <point x="42" y="423"/>
      <point x="105" y="336"/>
    </contour>
    <contour>
      <point x="221" y="411" type="curve" smooth="yes"/>
      <point x="167" y="411"/>
      <point x="135" y="466"/>
      <point x="135" y="583" type="curve" smooth="yes"/>
      <point x="135" y="702"/>
      <point x="168" y="759"/>
      <point x="222" y="759" type="curve" smooth="yes"/>
      <point x="275" y="759"/>
      <point x="305" y="706"/>
      <point x="305" y="586" type="curve" smooth="yes"/>
      <point x="305" y="465"/>
      <point x="274" y="411"/>
    </contour>
  </outline>
</glyph>
<glyph name="Euro" format="2">
  <advance width="730"/>
  <unicode hex="20AC"/>
  <outline>
    <contour>
      <point x="18" y="380" type="line"/>
      <point x="515" y="380" type="line"/>
      <point x="522" y="424" type="line"/>
      <point x="222" y="424" type="line"/>
      <point x="225" y="527"/>
      <point x="313" y="619"/>
      <point x="434" y="619" type="curve" smooth="yes"/>
      <point x="532" y="619"/>
      <point x="591" y="579"/>
      <point x="630" y="528" type="curve"/>
      <point x="701" y="599" type="line"/>
      <point x="634" y="683"/>
      <point x="551" y="720"/>
      <point x="430" y="720" type="curve" smooth="yes"/>
      <point x="257" y="720"/>
      <point x="126" y="606"/>
      <point x="100" y="424" type="curve"/>
      <point x="25" y="424" type="line"/>
    </contour>
    <contour>
      <point x="15" y="280" type="line"/>
      <point x="99" y="280" type="line"/>
      <point x="124" y="97"/>
      <point x="260" y="-20"/>
      <point x="436" y="-20" type="curve" smooth="yes"/>
      <point x="570" y="-20"/>
      <point x="636" y="23"/>
      <point x="706" y="102" type="curve"/>
      <point x="635" y="173" type="line"/>
      <point x="588" y="115"/>
      <point x="507" y="80"/>
      <point x="435" y="80" type="curve" smooth="yes"/>
      <point x="316" y="80"/>
      <point x="225" y="174"/>
      <point x="221" y="280" type="curve"/>
      <point x="498" y="280" type="line"/>
      <point x="505" y="324" type="line"/>
      <point x="22" y="324" type="line"/>
    </contour>
  </outline>
</glyph>
<glyph name="ruble" format="2">
  <advance width="720"/>
  <unicode hex="20BD"/>
  <outline>
    <contour>
      <point x="155" y="0" type="line"/>
      <point x="275" y="0" type="line"/>
      <point x="275" y="600" type="line"/>
      <point x="406" y="600" type="line" smooth="yes"/>
      <point x="508" y="600"/>
      <point x="551" y="547"/>
      <point x="551" y="464" type="curve" smooth="yes"/>
      <point x="551" y="381"/>
      <point x="509" y="327"/>
      <point x="407" y="327" type="curve" smooth="yes"/>
      <point x="45" y="327" type="line"/>
      <point x="45" y="226" type="line"/>
      <point x="404" y="226" type="line" smooth="yes"/>
      <point x="570" y="226"/>
      <point x="671" y="315"/>
      <point x="671" y="460" type="curve" smooth="yes"/>
      <point x="671" y="606"/>
      <point x="568" y="700"/>
      <point x="406" y="700" type="curve" smooth="yes"/>
      <point x="155" y="700" type="line"/>
    </contour>
    <contour>
      <point x="45" y="97" type="line"/>
      <point x="609" y="97" type="line"/>
      <point x="609" y="147" type="line"/>
      <point x="45" y="147" type="line"/>
    </contour>
  </outline>
</glyph>
<glyph name="partialdiff" format="2">
  <advance width="730"/>
  <unicode hex="2202"/>
  <outline>
    <contour>
      <point x="204" y="569" type="line"/>
      <point x="247" y="601"/>
      <point x="319" y="619"/>
      <point x="380" y="619" type="curve" smooth="yes"/>
      <point x="495" y="619"/>
      <point x="566" y="556"/>
      <point x="566" y="439" type="curve" smooth="yes"/>
      <point x="566" y="405"/>
      <point x="560" y="327"/>
      <point x="540" y="295" type="curve"/>
      <point x="516" y="255" type="line"/>
      <point x="542" y="278" type="line"/>
      <point x="565" y="372"/>
      <point x="479" y="467"/>
      <point x="327" y="467" type="curve" smooth="yes"/>
      <point x="165" y="467"/>
      <point x="28" y="360"/>
      <point x="28" y="206" type="curve" smooth="yes"/>
      <point x="28" y="73"/>
      <point x="131" y="-20"/>
      <point x="278" y="-20" type="curve" smooth="yes"/>
      <point x="497" y="-20"/>
      <point x="675" y="188"/>
      <point x="675" y="425" type="curve" smooth="yes"/>
      <point x="675" y="613"/>
      <point x="563" y="720"/>
      <point x="385" y="720" type="curve" smooth="yes"/>
      <point x="306" y="720"/>
      <point x="201" y="699"/>
      <point x="132" y="641" type="curve"/>
    </contour>
    <contour>
      <point x="148" y="220" type="curve" smooth="yes"/>
      <point x="148" y="307"/>
      <point x="219" y="375"/>
      <point x="332" y="375" type="curve" smooth="yes"/>
      <point x="431" y="375"/>
      <point x="495" y="323"/>
      <point x="495" y="242" type="curve" smooth="yes"/>
      <point x="495" y="140"/>
      <point x="395" y="83"/>
      <point x="303" y="83" type="curve" smooth="yes"/>
      <point x="214" y="83"/>
      <point x="148" y="136"/>
    </contour>
  </outline>
</glyph>
<glyph name="Ccedilla.ss10" format="2">
  <advance width="735"/>
  <anchor x="387" y="719" name="top"/>
  <anchor x="387" y="-217" name="bottom"/>
  <outline>
    <contour>
      <point x="643" y="235" type="line"/>
      <point x="567" y="117.24"/>
      <point x="497" y="80"/>
      <point x="411" y="80" type="curve" smooth="yes"/>
      <point x="256" y="80"/>
      <point x="173" y="191.413"/>
      <point x="173" y="353.011" type="curve" smooth="yes"/>
      <point x="173" y="514.61"/>
      <point x="255" y="620"/>
      <point x="401" y="620" type="curve" smooth="yes"/>
      <point x="491" y="620"/>
      <point x="560" y="579.74"/>
      <point x="634" y="465" type="curve"/>
      <point x="673" y="593" type="line"/>
      <point x="604" y="677"/>
      <point x="510" y="720"/>
      <point x="398" y="720" type="curve" smooth="yes"/>
      <point x="190" y="720"/>
      <point x="53" y="573"/>
      <point x="53" y="357" type="curve" smooth="yes"/>
      <point x="53" y="137"/>
      <point x="195" y="-20"/>
      <point x="405" y="-20" type="curve" smooth="yes"/>
      <point x="515" y="-20"/>
      <point x="612" y="23"/>
      <point x="682" y="107" type="curve"/>
    </contour>
    <contour>
      <point x="280" y="-204" type="line"/>
      <point x="306" y="-210"/>
      <point x="335" y="-217"/>
      <point x="376" y="-217" type="curve" smooth="yes"/>
      <point x="459" y="-217"/>
      <point x="506" y="-188"/>
      <point x="506" y="-135" type="curve" smooth="yes"/>
      <point x="506" y="-88"/>
      <point x="470" y="-63"/>
      <point x="410" y="-63" type="curve"/>
      <point x="452.784" y="14.5458" type="line"/>
      <point x="379.784" y="14.5458" type="line"/>
      <point x="327" y="-89" type="line"/>
      <point x="342" y="-87"/>
      <point x="353" y="-85"/>
      <point x="366" y="-85" type="curve" smooth="yes"/>
      <point x="401" y="-85"/>
      <point x="422" y="-100"/>
      <point x="422" y="-129" type="curve" smooth="yes"/>
      <point x="422" y="-157"/>
      <point x="402" y="-176"/>
      <point x="366" y="-176" type="curve" smooth="yes"/>
      <point x="348" y="-176"/>
      <point x="320" y="-171"/>
      <point x="299" y="-165" type="curve"/>
    </contour>
  </outline>
</glyph>
<glyph name="Eng.ss09" format="2">
  <advance width="752"/>
  <anchor x="376" y="719" name="top"/>
  <anchor x="385" y="-207" name="bottom"/>
  <outline>
    <contour>
      <point x="87" y="0" type="line"/>
      <point x="207" y="0" type="line" name="ab01"/>
      <point x="207" y="515" type="line" name="iv01"/>
      <point x="555" y="0" type="line" name="ab02"/>
      <point x="665" y="89.7923" type="line"/>
      <point x="665" y="700" type="line" name="at01"/>
      <point x="545" y="700" type="line"/>
      <point x="545" y="185" type="line" name="iv02"/>
      <point x="197" y="700" type="line" name="at02"/>
      <point x="87" y="700" type="line"/>
    </contour>
    <contour>
      <point x="215" y="-15" type="line"/>
      <point x="241" y="-165"/>
      <point x="301.162" y="-230"/>
      <point x="441.541" y="-230" type="curve" smooth="yes"/>
      <point x="581.919" y="-230"/>
      <point x="665" y="-135"/>
      <point x="665" y="42" type="curve" smooth="yes"/>
      <point x="665" y="490" type="line"/>
      <point x="545" y="490" type="line"/>
      <point x="545" y="43.2795" type="line" smooth="yes"/>
      <point x="545" y="-76.9144"/>
      <point x="501.305" y="-130"/>
      <point x="437.583" y="-130" type="curve" smooth="yes"/>
      <point x="373.861" y="-130"/>
      <point x="342" y="-91"/>
      <point x="335" y="-15" type="curve"/>
    </contour>
  </outline>
</glyph>
<glyph name="Eng.ss10" format="2">
  <advance width="752"/>
  <anchor x="376" y="719" name="top"/>
  <anchor x="375" y="-221" name="bottom"/>
  <outline>
    <contour>
      <point x="87" y="0" type="line"/>
      <point x="207" y="0" type="line" name="ab01"/>
      <point x="207" y="515" type="line" name="iv01"/>
      <point x="555" y="0" type="line" name="ab02"/>
      <point x="665" y="105.886" type="line"/>
      <point x="665" y="700" type="line" name="at01"/>
      <point x="545" y="700" type="line"/>
      <point x="545" y="185" type="line" name="iv02"/>
      <point x="197" y="700" type="line" name="at02"/>
      <point x="87" y="700" type="line"/>
    </contour>
    <contour>
      <point x="223" y="-103" type="line"/>
      <point x="280" y="-182"/>
      <point x="349.578" y="-230"/>
      <point x="447.916" y="-230" type="curve" smooth="yes"/>
      <point x="589.855" y="-230"/>
      <point x="665" y="-129"/>
      <point x="665" y="32" type="curve" smooth="yes"/>
      <point x="665" y="490" type="line"/>
      <point x="545" y="490" type="line"/>
      <point x="545" y="43.2795" type="line" smooth="yes"/>
      <point x="545" y="-74.9111"/>
      <point x="507.941" y="-130"/>
      <point x="433.824" y="-130" type="curve" smooth="yes"/>
      <point x="371.176" y="-130"/>
      <point x="320" y="-90.7468"/>
      <point x="262" y="25" type="curve"/>
    </contour>
  </outline>
</glyph>
<glyph name="Eng.ss12" format="2">
  <advance width="752"/>
  <anchor x="376" y="719" name="top"/>
  <anchor x="359" y="-219" name="bottom"/>
  <outline>
    <contour>
      <point x="87" y="0" type="line"/>
      <point x="207" y="0" type="line" name="ab01"/>
      <point x="207" y="515" type="line" name="iv01"/>
      <point x="555" y="0" type="line" name="ab02"/>
      <point x="665" y="66.545" type="line"/>
      <point x="665" y="700" type="line" name="at01"/>
      <point x="545" y="700" type="line"/>
      <point x="545" y="185" type="line" name="iv02"/>
      <point x="197" y="700" type="line" name="at02"/>
      <point x="87" y="700" type="line"/>
    </contour>
    <contour>
      <point x="260.5" y="-181" type="line"/>
      <point x="306.5" y="-207"/>
      <point x="357.5" y="-227"/>
      <point x="434.5" y="-227" type="curve" smooth="yes"/>
      <point x="586.5" y="-227"/>
      <point x="665.5" y="-150"/>
      <point x="665.5" y="25" type="curve" smooth="yes"/>
      <point x="665.5" y="493" type="line"/>
      <point x="545.5" y="493" type="line"/>
      <point x="545.5" y="25" type="line" smooth="yes"/>
      <point x="545.5" y="-91"/>
      <point x="501.5" y="-127"/>
      <point x="413.5" y="-127" type="curve" smooth="yes"/>
      <point x="380.5" y="-127"/>
      <point x="336.5" y="-122"/>
      <point x="270.5" y="-97" type="curve"/>
    </contour>
  </outline>
</glyph>
<glyph name="Euro.ss12" format="2">
  <advance width="695"/>
  <outline>
    <contour>
      <point x="41" y="377" type="line"/>
      <point x="519" y="377" type="line"/>
      <point x="529" y="437" type="line"/>
      <point x="226" y="437" type="line"/>
      <point x="249" y="551"/>
      <point x="318" y="620"/>
      <point x="428" y="620" type="curve" smooth="yes"/>
      <point x="501" y="620"/>
      <point x="563" y="589"/>
      <point x="632" y="510" type="curve"/>
      <point x="641" y="595" type="line"/>
      <point x="572" y="680"/>
      <point x="497" y="720"/>
      <point x="401" y="720" type="curve" smooth="yes"/>
      <point x="243" y="720"/>
      <point x="132" y="610"/>
      <point x="105" y="437" type="curve"/>
      <point x="51" y="437" type="line"/>
    </contour>
    <contour>
      <point x="31" y="263" type="line"/>
      <point x="104" y="263" type="line"/>
      <point x="131" y="89"/>
      <point x="241" y="-20"/>
      <point x="400" y="-20" type="curve" smooth="yes"/>
      <point x="497" y="-20"/>
      <point x="573" y="20"/>
      <point x="642" y="105" type="curve"/>
      <point x="633" y="190" type="line"/>
      <point x="569" y="115"/>
      <point x="501" y="81"/>
      <point x="424" y="81" type="curve" smooth="yes"/>
      <point x="314" y="81"/>
      <point x="247" y="149"/>
      <point x="226" y="263" type="curve"/>
      <point x="499" y="263" type="line"/>
      <point x="509" y="323" type="line"/>
      <point x="41" y="323" type="line"/>
    </contour>
  </outline>
</glyph>
<glyph name="IJ.liga.ss12" format="2">
  <advance width="610"/>
  <outline>
    <contour>
      <point x="111" y="26" type="line"/>
      <point x="157" y="0"/>
      <point x="210.841" y="-20"/>
      <point x="292.131" y="-20" type="curve" smooth="yes"/>
      <point x="452.599" y="-20"/>
      <point x="536" y="57"/>
      <point x="536" y="232" type="curve" smooth="yes"/>
      <point x="536" y="700" type="line"/>
      <point x="416" y="700" type="line"/>
      <point x="416" y="232" type="line" smooth="yes"/>
      <point x="416" y="116"/>
      <point x="367.789" y="80"/>
      <point x="271.368" y="80" type="curve" smooth="yes"/>
      <point x="235.211" y="80"/>
      <point x="187" y="85"/>
      <point x="121" y="110" type="curve"/>
    </contour>
    <contour>
      <point x="103" y="200" type="line"/>
      <point x="223" y="200" type="line"/>
      <point x="223" y="700" type="line"/>
      <point x="103" y="700" type="line"/>
    </contour>
  </outline>
</glyph>
<glyph name="Ljecyr.ss08" format="2">
  <advance width="920"/>
  <outline>
    <contour>
      <point x="527" y="0" type="line"/>
      <point x="627" y="0" type="line" smooth="yes"/>
      <point x="789" y="0"/>
      <point x="871" y="71.8333"/>
      <point x="871" y="213.29" type="curve" smooth="yes"/>
      <point x="871" y="355.851"/>
      <point x="787" y="431"/>
      <point x="626" y="431" type="curve" smooth="yes"/>
      <point x="414" y="431" type="line"/>
      <point x="429" y="331" type="line"/>
      <point x="578" y="331" type="line" smooth="yes"/>
      <point x="717" y="331"/>
      <point x="751" y="301.821"/>
      <point x="751" y="213.068" type="curve" smooth="yes"/>
      <point x="751" y="124.316"/>
      <point x="714" y="100"/>
      <point x="577" y="100" type="curve" smooth="yes"/>
      <point x="569" y="100" type="line"/>
      <point x="516" y="3" type="line"/>
    </contour>
    <contour>
      <point x="357" y="700" type="line"/>
      <point x="249" y="700" type="line"/>
      <point x="22" y="0" type="line"/>
      <point x="148" y="0" type="line"/>
    </contour>
    <contour>
      <point x="406" y="700" type="line"/>
      <point x="298" y="700" type="line"/>
      <point x="507" y="0" type="line"/>
      <point x="633" y="0" type="line"/>
    </contour>
  </outline>
</glyph>
<glyph name="Q.ss06" format="2">
  <advance width="795"/>
  <anchor x="398" y="719" name="top"/>
  <anchor x="398" y="-20" name="bottom"/>
  <anchor x="523" y="-1" name="ogonek"/>
  <outline>
    <contour>
      <point x="400.938" y="84" type="curve" smooth="yes" name="dv02"/>
      <point x="262.45" y="84"/>
      <point x="177" y="183.84"/>
      <point x="177" y="349.967" type="curve" smooth="yes"/>
      <point x="177" y="518.071"/>
      <point x="255.575" y="616"/>
      <point x="393.08" y="616" type="curve" smooth="yes" name="dv03"/>
      <point x="534.514" y="616"/>
      <point x="618" y="520.126"/>
      <point x="618" y="350.045" type="curve" smooth="yes" name="dv05"/>
      <point x="618" y="184.907"/>
      <point x="537.461" y="84"/>
    </contour>
    <contour>
      <point x="397" y="-20" type="curve" smooth="yes" name="dv01"/>
      <point x="599" y="-20"/>
      <point x="742" y="107"/>
      <point x="742" y="350" type="curve" smooth="yes" name="dv06"/>
      <point x="742" y="575"/>
      <point x="612" y="720"/>
      <point x="398" y="720" type="curve" smooth="yes" name="dv04"/>
      <point x="192" y="720"/>
      <point x="53" y="586"/>
      <point x="53" y="350" type="curve" smooth="yes"/>
      <point x="53" y="109"/>
      <point x="196" y="-20"/>
    </contour>
    <contour>
      <point x="300.442" y="102.671" type="line"/>
      <point x="322.442" y="144.671"/>
      <point x="355.442" y="169.671"/>
      <point x="383.595" y="169.671" type="curve" smooth="yes"/>
      <point x="421.285" y="169.671"/>
      <point x="437.74" y="124.863"/>
      <point x="457.974" y="69.7651" type="curve" smooth="yes"/>
      <point x="490.268" y="-18.1762"/>
      <point x="532.189" y="-132.329"/>
      <point x="685.442" y="-132.329" type="curve"/>
      <point x="685.442" y="-32.3286" type="line"/>
      <point x="606.708" y="-32.3286"/>
      <point x="587.296" y="23.6666"/>
      <point x="567.464" y="80.8737" type="curve" smooth="yes"/>
      <point x="546.754" y="140.612"/>
      <point x="525.587" y="201.671"/>
      <point x="435.933" y="201.671" type="curve" smooth="yes"/>
      <point x="356.442" y="201.671"/>
      <point x="318.405" y="153.671"/>
      <point x="293.442" y="106.671" type="curve"/>
    </contour>
  </outline>
</glyph>
<glyph name="Zecyr.ss09" format="2">
  <advance width="598"/>
  <anchor x="299" y="-20" name="bottom"/>
  <anchor x="299" y="719" name="top"/>
  <outline>
    <contour>
      <point x="35" y="197" type="line"/>
      <point x="61.0249" y="66"/>
      <point x="143.103" y="-21"/>
      <point x="304.257" y="-21" type="curve" smooth="yes"/>
      <point x="453.4" y="-21"/>
      <point x="557.5" y="56"/>
      <point x="557.5" y="179" type="curve" smooth="yes"/>
      <point x="557.5" y="294"/>
      <point x="496.339" y="355"/>
      <point x="366" y="371" type="curve"/>
      <point x="483" y="399"/>
      <point x="524" y="451"/>
      <point x="524" y="542" type="curve" smooth="yes"/>
      <point x="524" y="649"/>
      <point x="439" y="720"/>
      <point x="302" y="720" type="curve" smooth="yes"/>
      <point x="150" y="720"/>
      <point x="66" y="633"/>
      <point x="42" y="502" type="curve"/>
      <point x="162" y="502" type="line"/>
      <point x="177" y="584"/>
      <point x="231" y="620"/>
      <point x="303" y="620" type="curve" smooth="yes"/>
      <point x="358" y="620"/>
      <point x="404" y="593.874"/>
      <point x="404" y="531.575" type="curve" smooth="yes"/>
      <point x="404" y="471.285"/>
      <point x="363" y="412"/>
      <point x="261" y="412" type="curve"/>
      <point x="261" y="317" type="line"/>
      <point x="392.629" y="317"/>
      <point x="437.5" y="264.781"/>
      <point x="437.5" y="195.489" type="curve" smooth="yes"/>
      <point x="437.5" y="116.156"/>
      <point x="379.604" y="79"/>
      <point x="307.731" y="79" type="curve" smooth="yes"/>
      <point x="216.891" y="79"/>
      <point x="171.97" y="117"/>
      <point x="155" y="197" type="curve"/>
    </contour>
  </outline>
</glyph>
<glyph name="Zecyr.ss12" format="2">
  <advance width="598"/>
  <anchor x="298" y="-21" name="bottom"/>
  <anchor x="299" y="719" name="top"/>
  <outline>
    <contour>
      <point x="65.9118" y="172.639" type="curve"/>
      <point x="58" y="89" type="line"/>
      <point x="93.5266" y="35.5256"/>
      <point x="186.16" y="-21"/>
      <point x="298" y="-21" type="curve" smooth="yes"/>
      <point x="447.15" y="-21"/>
      <point x="557.5" y="56.1969"/>
      <point x="557.5" y="178.509" type="curve" smooth="yes"/>
      <point x="557.5" y="293.803"/>
      <point x="496.339" y="354.959"/>
      <point x="366" y="371" type="curve"/>
      <point x="483" y="398.976"/>
      <point x="525" y="450.931"/>
      <point x="525" y="541.853" type="curve" smooth="yes"/>
      <point x="525" y="647.761"/>
      <point x="437.006" y="719.699"/>
      <point x="303.006" y="719.699" type="curve" smooth="yes"/>
      <point x="204.673" y="719.699"/>
      <point x="111.881" y="672.478"/>
      <point x="74.0808" y="619.004" type="curve"/>
      <point x="82.1874" y="535.467" type="line"/>
      <point x="161.935" y="595.345"/>
      <point x="237.714" y="620"/>
      <point x="303" y="620" type="curve" smooth="yes"/>
      <point x="366" y="620"/>
      <point x="405" y="591.865"/>
      <point x="405" y="531.575" type="curve" smooth="yes"/>
      <point x="405" y="471.285"/>
      <point x="363" y="412"/>
      <point x="261" y="412" type="curve"/>
      <point x="261" y="317" type="line"/>
      <point x="392.629" y="317"/>
      <point x="437.5" y="264.559"/>
      <point x="437.5" y="195.983" type="curve" smooth="yes"/>
      <point x="437.5" y="116.314"/>
      <point x="384.574" y="79"/>
      <point x="302.685" y="79" type="curve" smooth="yes"/>
      <point x="237.399" y="79"/>
      <point x="143.762" y="112.975"/>
    </contour>
  </outline>
</glyph>
<glyph name="a.ss12" format="2">
  <advance width="544"/>
  <anchor x="272" y="520" name="top"/>
  <anchor x="272" y="-20" name="bottom"/>
  <anchor x="472" y="-2" name="ogonek"/>
  <outline>
    <contour>
      <point x="358" y="0" type="line"/>
      <point x="358" y="263" type="line"/>
      <point x="358" y="243"/>
      <point x="311" y="205"/>
      <point x="240" y="205" type="curve" smooth="yes"/>
      <point x="186" y="205"/>
      <point x="156" y="183.321"/>
      <point x="156" y="137.993" type="curve" smooth="yes"/>
      <point x="156" y="95.6204"/>
      <point x="182" y="70"/>
      <point x="232" y="70" type="curve" smooth="yes"/>
      <point x="307.6" y="70"/>
      <point x="358" y="108.8"/>
      <point x="358" y="167" type="curve"/>
      <point x="372" y="118" type="line"/>
      <point x="349" y="20"/>
      <point x="303" y="-20"/>
      <point x="218.825" y="-20" type="curve" smooth="yes"/>
      <point x="112" y="-20"/>
      <point x="36" y="44.4224"/>
      <point x="36" y="143.581" type="curve" smooth="yes"/>
      <point x="36" y="236.683"/>
      <point x="103" y="285"/>
      <point x="228" y="285" type="curve" smooth="yes"/>
      <point x="319" y="285"/>
      <point x="358" y="309.66"/>
      <point x="358" y="359.966" type="curve" smooth="yes"/>
      <point x="358" y="409.286"/>
      <point x="320" y="430"/>
      <point x="256" y="430" type="curve" smooth="yes"/>
      <point x="197" y="430"/>
      <point x="149" y="412"/>
      <point x="71" y="357" type="curve"/>
      <point x="64" y="431" type="line"/>
      <point x="116" y="490"/>
      <point x="184" y="520"/>
      <point x="270" y="520" type="curve" smooth="yes"/>
      <point x="397" y="520"/>
      <point x="478" y="455"/>
      <point x="478" y="350" type="curve" smooth="yes"/>
      <point x="478" y="0" type="line"/>
    </contour>
  </outline>
</glyph>
<glyph name="ampersand.ss09" format="2">
  <advance width="660"/>
  <outline>
    <contour>
      <point x="480" y="310" type="line"/>
      <point x="480" y="165"/>
      <point x="422" y="81"/>
      <point x="291" y="81" type="curve" smooth="yes"/>
      <point x="206" y="81"/>
      <point x="157" y="122"/>
      <point x="157" y="194" type="curve" smooth="yes"/>
      <point x="157" y="282"/>
      <point x="203" y="334"/>
      <point x="318" y="378" type="curve"/>
      <point x="210" y="512" type="line" smooth="yes"/>
      <point x="175" y="555"/>
      <point x="190" y="600"/>
      <point x="242" y="600" type="curve" smooth="yes"/>
      <point x="471" y="600" type="line"/>
      <point x="471" y="700" type="line"/>
      <point x="235" y="700" type="line" smooth="yes"/>
      <point x="128" y="700"/>
      <point x="71" y="637"/>
      <point x="71" y="570" type="curve" smooth="yes"/>
      <point x="71" y="503"/>
      <point x="105" y="459"/>
      <point x="178" y="379" type="curve"/>
      <point x="85" y="339"/>
      <point x="37" y="270"/>
      <point x="37" y="177" type="curve" smooth="yes"/>
      <point x="37" y="53"/>
      <point x="132" y="-20"/>
      <point x="295" y="-20" type="curve" smooth="yes"/>
      <point x="496" y="-20"/>
      <point x="600" y="122"/>
      <point x="600" y="310" type="curve"/>
    </contour>
    <contour>
      <point x="438" y="131" type="line"/>
      <point x="569" y="0" type="line"/>
      <point x="641" y="0" type="line"/>
      <point x="641" y="84" type="line"/>
      <point x="510" y="215" type="line"/>
    </contour>
  </outline>
</glyph>
<glyph name="aogonek.ss02" format="2">
  <advance width="580"/>
  <anchor x="287" y="520" name="top"/>
  <anchor x="280" y="-20" name="bottom"/>
  <outline>
    <contour>
      <point x="391" y="110" type="line"/>
      <point x="374" y="28"/>
      <point x="315" y="-20"/>
      <point x="228" y="-20" type="curve" smooth="yes"/>
      <point x="124" y="-20"/>
      <point x="50" y="49"/>
      <point x="50" y="146" type="curve" smooth="yes"/>
      <point x="50" y="243"/>
      <point x="124" y="312"/>
      <point x="231" y="312" type="curve" smooth="yes"/>
      <point x="316" y="312"/>
      <point x="375" y="268"/>
      <point x="392" y="193" type="curve"/>
      <point x="387" y="124" type="line"/>
      <point x="384" y="182"/>
      <point x="336" y="222"/>
      <point x="263" y="222" type="curve" smooth="yes"/>
      <point x="208" y="222"/>
      <point x="170" y="199"/>
      <point x="170" y="150" type="curve" smooth="yes"/>
      <point x="170" y="99"/>
      <point x="210" y="70"/>
      <point x="263" y="70" type="curve" smooth="yes"/>
      <point x="332" y="70"/>
      <point x="378" y="118"/>
      <point x="378" y="187" type="curve"/>
    </contour>
    <contour>
      <point x="376" y="0" type="line"/>
      <point x="376" y="346.807" type="line" smooth="yes"/>
      <point x="376" y="400.932"/>
      <point x="347" y="430"/>
      <point x="287" y="430" type="curve" smooth="yes"/>
      <point x="233" y="430"/>
      <point x="175" y="406.657"/>
      <point x="143" y="362" type="curve"/>
      <point x="75" y="430" type="line"/>
      <point x="117" y="483"/>
      <point x="193" y="520"/>
      <point x="292" y="520" type="curve" smooth="yes"/>
      <point x="434" y="520"/>
      <point x="496" y="444"/>
      <point x="496" y="352" type="curve" smooth="yes"/>
      <point x="496" y="0" type="line"/>
    </contour>
    <contour>
      <point x="450" y="-205" type="line"/>
      <point x="382" y="-195"/>
      <point x="338" y="-158"/>
      <point x="338" y="-109" type="curve" smooth="yes"/>
      <point x="338" y="-55"/>
      <point x="390" y="-13"/>
      <point x="473" y="3" type="curve"/>
      <point x="496" y="0" type="line"/>
      <point x="456" y="-24"/>
      <point x="431" y="-66"/>
      <point x="431" y="-103" type="curve" smooth="yes"/>
      <point x="431" y="-137"/>
      <point x="453" y="-168"/>
      <point x="497" y="-182" type="curve"/>
    </contour>
  </outline>
</glyph>
<glyph name="aogonek.ss10" format="2">
  <advance width="568"/>
  <anchor x="284" y="520" name="top"/>
  <anchor x="284" y="-20" name="bottom"/>
  <outline>
    <contour>
      <point x="373" y="84" type="line"/>
      <point x="373" y="253" type="line"/>
      <point x="354" y="222"/>
      <point x="303" y="202"/>
      <point x="252" y="202" type="curve" smooth="yes"/>
      <point x="193" y="202"/>
      <point x="165" y="175"/>
      <point x="165" y="137" type="curve" smooth="yes"/>
      <point x="165" y="96"/>
      <point x="196" y="70"/>
      <point x="243" y="70" type="curve" smooth="yes"/>
      <point x="315" y="70"/>
      <point x="373" y="129"/>
      <point x="373" y="186" type="curve"/>
      <point x="391" y="128" type="line"/>
      <point x="376" y="60"/>
      <point x="318" y="-20"/>
      <point x="212" y="-20" type="curve" smooth="yes"/>
      <point x="121" y="-20"/>
      <point x="45" y="38"/>
      <point x="45" y="135" type="curve" smooth="yes"/>
      <point x="45" y="232"/>
      <point x="121" y="281"/>
      <point x="239" y="281" type="curve" smooth="yes"/>
      <point x="334" y="281"/>
      <point x="372" y="313"/>
      <point x="372" y="361" type="curve" smooth="yes"/>
      <point x="372" y="405"/>
      <point x="337.049" y="430"/>
      <point x="267.148" y="430" type="curve" smooth="yes"/>
      <point x="204.66" y="430"/>
      <point x="157" y="410"/>
      <point x="91" y="318" type="curve"/>
      <point x="60" y="426" type="line"/>
      <point x="94" y="472"/>
      <point x="162.047" y="520"/>
      <point x="278.55" y="520" type="curve" smooth="yes"/>
      <point x="413.612" y="520"/>
      <point x="493" y="456"/>
      <point x="493" y="352" type="curve" smooth="yes"/>
      <point x="493" y="-10" type="line"/>
    </contour>
    <contour>
      <point x="447" y="-205" type="line"/>
      <point x="379" y="-195"/>
      <point x="335" y="-158"/>
      <point x="335" y="-109" type="curve" smooth="yes"/>
      <point x="335" y="-55"/>
      <point x="392.545" y="-7.68016"/>
      <point x="475.545" y="8.31984" type="curve"/>
      <point x="493" y="0" type="line"/>
      <point x="453" y="-24"/>
      <point x="428" y="-66"/>
      <point x="428" y="-103" type="curve" smooth="yes"/>
      <point x="428" y="-137"/>
      <point x="450" y="-168"/>
      <point x="494" y="-182" type="curve"/>
    </contour>
  </outline>
</glyph>
<glyph name="brevecycomb" format="2">
  <advance width="336"/>
  <anchor x="168" y="500" name="_top"/>
  <anchor x="168" y="680" name="top"/>
  <outline>
    <contour>
      <point x="34" y="701" type="line"/>
      <point x="43.6429" y="604.8"/>
      <point x="94" y="553"/>
      <point x="168" y="553" type="curve" smooth="yes"/>
      <point x="247" y="553"/>
      <point x="296.581" y="610.967"/>
      <point x="305" y="701" type="curve"/>
      <point x="235" y="701" type="line"/>
      <point x="231" y="650.864"/>
      <point x="205" y="614"/>
      <point x="168" y="614" type="curve" smooth="yes"/>
      <point x="132" y="614"/>
      <point x="108" y="647.915"/>
      <point x="104" y="701" type="curve"/>
    </contour>
  </outline>
</glyph>
<glyph name="ccedilla.ss09" format="2">
  <advance width="611"/>
  <anchor x="310" y="520" name="top"/>
  <anchor x="310" y="-218" name="bottom"/>
  <outline>
    <contour>
      <point x="435" y="167" type="line"/>
      <point x="432" y="111"/>
      <point x="388" y="70"/>
      <point x="324" y="70" type="curve" smooth="yes"/>
      <point x="231" y="70"/>
      <point x="179" y="134.358"/>
      <point x="179" y="246.983" type="curve" smooth="yes"/>
      <point x="179" y="361.62"/>
      <point x="226" y="430"/>
      <point x="317" y="430" type="curve" smooth="yes"/>
      <point x="381" y="430"/>
      <point x="430" y="389.828"/>
      <point x="437" y="333" type="curve"/>
      <point x="552" y="333" type="line"/>
      <point x="533" y="457.667"/>
      <point x="445" y="520"/>
      <point x="317" y="520" type="curve" smooth="yes"/>
      <point x="155" y="520"/>
      <point x="59" y="417"/>
      <point x="59" y="255" type="curve" smooth="yes"/>
      <point x="59" y="85"/>
      <point x="159" y="-20"/>
      <point x="322" y="-20" type="curve" smooth="yes"/>
      <point x="452" y="-20"/>
      <point x="540" y="47"/>
      <point x="550" y="167" type="curve"/>
    </contour>
    <contour>
      <point x="203" y="-205" type="line"/>
      <point x="229" y="-211"/>
      <point x="258" y="-218"/>
      <point x="299" y="-218" type="curve" smooth="yes"/>
      <point x="382" y="-218"/>
      <point x="429" y="-189"/>
      <point x="429" y="-136" type="curve" smooth="yes"/>
      <point x="429" y="-89"/>
      <point x="393" y="-64"/>
      <point x="333" y="-64" type="curve"/>
      <point x="375.784" y="13.5458" type="line"/>
      <point x="302.784" y="13.5458" type="line"/>
      <point x="250" y="-90" type="line"/>
      <point x="265" y="-88"/>
      <point x="276" y="-86"/>
      <point x="289" y="-86" type="curve" smooth="yes"/>
      <point x="324" y="-86"/>
      <point x="345" y="-101"/>
      <point x="345" y="-130" type="curve" smooth="yes"/>
      <point x="345" y="-158"/>
      <point x="325" y="-177"/>
      <point x="289" y="-177" type="curve" smooth="yes"/>
      <point x="271" y="-177"/>
      <point x="243" y="-172"/>
      <point x="222" y="-166" type="curve"/>
    </contour>
  </outline>
</glyph>
<glyph name="ccedilla.ss12" format="2">
  <advance width="570"/>
  <anchor x="310" y="520" name="top"/>
  <anchor x="290" y="-218" name="bottom"/>
  <outline>
    <contour>
      <point x="503" y="154" type="line"/>
      <point x="444" y="97"/>
      <point x="385" y="70"/>
      <point x="320" y="70" type="curve" smooth="yes"/>
      <point x="224" y="70"/>
      <point x="179" y="143"/>
      <point x="179" y="255" type="curve" smooth="yes"/>
      <point x="179" y="365"/>
      <point x="220" y="430"/>
      <point x="319" y="430" type="curve" smooth="yes"/>
      <point x="379" y="430"/>
      <point x="427" y="411"/>
      <point x="504" y="357" type="curve"/>
      <point x="511" y="431" type="line"/>
      <point x="459" y="490"/>
      <point x="391" y="520"/>
      <point x="311" y="520" type="curve" smooth="yes"/>
      <point x="151" y="520"/>
      <point x="59" y="411"/>
      <point x="59" y="255" type="curve" smooth="yes"/>
      <point x="59" y="91"/>
      <point x="157" y="-20"/>
      <point x="312.057" y="-20" type="curve" smooth="yes"/>
      <point x="394" y="-20"/>
      <point x="452" y="11"/>
      <point x="510" y="80" type="curve"/>
    </contour>
    <contour>
      <point x="183" y="-205" type="line"/>
      <point x="209" y="-211"/>
      <point x="238" y="-218"/>
      <point x="279" y="-218" type="curve" smooth="yes"/>
      <point x="362" y="-218"/>
      <point x="409" y="-189"/>
      <point x="409" y="-136" type="curve" smooth="yes"/>
      <point x="409" y="-89"/>
      <point x="373" y="-64"/>
      <point x="313" y="-64" type="curve"/>
      <point x="355.784" y="13.5458" type="line"/>
      <point x="282.784" y="13.5458" type="line"/>
      <point x="230" y="-90" type="line"/>
      <point x="245" y="-88"/>
      <point x="256" y="-86"/>
      <point x="269" y="-86" type="curve" smooth="yes"/>
      <point x="304" y="-86"/>
      <point x="325" y="-101"/>
      <point x="325" y="-130" type="curve" smooth="yes"/>
      <point x="325" y="-158"/>
      <point x="305" y="-177"/>
      <point x="269" y="-177" type="curve" smooth="yes"/>
      <point x="251" y="-177"/>
      <point x="223" y="-172"/>
      <point x="202" y="-166" type="curve"/>
    </contour>
  </outline>
</glyph>
<glyph name="dollar.ss12" format="2">
  <advance width="590"/>
  <outline>
    <contour>
      <point x="58" y="103.239" type="line"/>
      <point x="93.5266" y="52.625"/>
      <point x="186.16" y="-0.8765"/>
      <point x="298" y="-0.8765" type="curve" smooth="yes"/>
      <point x="454.846" y="-0.8765"/>
      <point x="541" y="76.1169"/>
      <point x="541" y="193.033" type="curve" smooth="yes"/>
      <point x="541" y="317.073"/>
      <point x="434.864" y="354.279"/>
      <point x="338.011" y="388.23" type="curve" smooth="yes"/>
      <point x="256.737" y="416.721"/>
      <point x="182" y="442.92"/>
      <point x="182" y="516.215" type="curve" smooth="yes"/>
      <point x="182" y="577.155"/>
      <point x="218.131" y="605.545"/>
      <point x="295.689" y="605.545" type="curve" smooth="yes"/>
      <point x="360.976" y="605.545"/>
      <point x="432.934" y="582.292"/>
      <point x="508.661" y="525.82" type="curve"/>
      <point x="516.768" y="604.887" type="line"/>
      <point x="481.241" y="655.5"/>
      <point x="394.03" y="700.195"/>
      <point x="295.698" y="700.195" type="curve" smooth="yes"/>
      <point x="150.041" y="700.195"/>
      <point x="62" y="627.447"/>
      <point x="62" y="507.092" type="curve" smooth="yes"/>
      <point x="62" y="388.412"/>
      <point x="167.446" y="349.923"/>
      <point x="264.042" y="314.664" type="curve" smooth="yes"/>
      <point x="345.682" y="284.865"/>
      <point x="421" y="257.372"/>
      <point x="421" y="185.727" type="curve" smooth="yes"/>
      <point x="421" y="129.797"/>
      <point x="375.008" y="93.7735"/>
      <point x="298.008" y="93.7735" type="curve" smooth="yes"/>
      <point x="232.722" y="93.7735"/>
      <point x="141.639" y="125.931"/>
      <point x="65.9118" y="182.403" type="curve"/>
    </contour>
    <contour>
      <point x="280" y="-101" type="line"/>
      <point x="318" y="-101" type="line"/>
      <point x="318" y="780" type="line"/>
      <point x="280" y="780" type="line"/>
    </contour>
  </outline>
</glyph>
<glyph name="e.ss09" format="2">
  <advance width="595"/>
  <anchor x="298" y="520" name="top"/>
  <anchor x="298" y="-20" name="bottom"/>
  <anchor x="409" y="-2" name="ogonek"/>
  <outline>
    <contour>
      <point x="422" y="310" type="line"/>
      <point x="422" y="378.852"/>
      <point x="370" y="430"/>
      <point x="300" y="430" type="curve" smooth="yes"/>
      <point x="227" y="430"/>
      <point x="169" y="377.869"/>
      <point x="169" y="310" type="curve"/>
    </contour>
    <contour>
      <point x="169" y="238" type="line"/>
      <point x="169" y="135.389"/>
      <point x="219" y="70"/>
      <point x="299" y="70" type="curve" smooth="yes"/>
      <point x="359" y="70"/>
      <point x="414" y="100"/>
      <point x="418" y="167" type="curve"/>
      <point x="542" y="167" type="line"/>
      <point x="521" y="50"/>
      <point x="443" y="-20"/>
      <point x="300" y="-20" type="curve" smooth="yes"/>
      <point x="143" y="-20"/>
      <point x="48" y="95"/>
      <point x="48" y="255" type="curve" smooth="yes"/>
      <point x="48" y="401"/>
      <point x="135" y="520"/>
      <point x="300" y="520" type="curve" smooth="yes"/>
      <point x="465" y="520"/>
      <point x="548" y="397"/>
      <point x="548" y="238" type="curve"/>
    </contour>
  </outline>
</glyph>
<glyph name="germandbls.ss10" format="2">
  <advance width="730"/>
  <outline>
    <contour>
      <point x="84" y="0" type="line"/>
      <point x="84" y="535" type="line" smooth="yes"/>
      <point x="84" y="686"/>
      <point x="187" y="751"/>
      <point x="321" y="751" type="curve" smooth="yes"/>
      <point x="460" y="751"/>
      <point x="551" y="682"/>
      <point x="551" y="564" type="curve" smooth="yes"/>
      <point x="551" y="446"/>
      <point x="444" y="432"/>
      <point x="444" y="377" type="curve" smooth="yes"/>
      <point x="444" y="296"/>
      <point x="672" y="283"/>
      <point x="672" y="131" type="curve" smooth="yes"/>
      <point x="672" y="43"/>
      <point x="595" y="-20"/>
      <point x="474" y="-20" type="curve" smooth="yes"/>
      <point x="374" y="-20"/>
      <point x="303" y="23"/>
      <point x="260" y="87" type="curve"/>
      <point x="291" y="195" type="line"/>
      <point x="342" y="112"/>
      <point x="397" y="70"/>
      <point x="470" y="70" type="curve" smooth="yes"/>
      <point x="522" y="70"/>
      <point x="553" y="92"/>
      <point x="553" y="128" type="curve" smooth="yes"/>
      <point x="553" y="227"/>
      <point x="325" y="248"/>
      <point x="325" y="370" type="curve" smooth="yes"/>
      <point x="325" y="454"/>
      <point x="431" y="478"/>
      <point x="431" y="568" type="curve" smooth="yes"/>
      <point x="431" y="630"/>
      <point x="388" y="660"/>
      <point x="317" y="660" type="curve" smooth="yes"/>
      <point x="239" y="660"/>
      <point x="204" y="602"/>
      <point x="204" y="518" type="curve" smooth="yes"/>
      <point x="204" y="0" type="line"/>
    </contour>
  </outline>
</glyph>
<glyph name="hbar.ss11" format="2">
  <advance width="635"/>
  <outline>
    <contour>
      <point x="84" y="0" type="line"/>
      <point x="204" y="0" type="line"/>
      <point x="204" y="700" type="line"/>
      <point x="84" y="700" type="line"/>
    </contour>
    <contour>
      <point x="204" y="197" type="line" name="iv01"/>
      <point x="204" y="325.204"/>
      <point x="252" y="410"/>
      <point x="340" y="410" type="curve" smooth="yes" name="sv01"/>
      <point x="399" y="410"/>
      <point x="431" y="379.86"/>
      <point x="431" y="271.355" type="curve" smooth="yes"/>
      <point x="431" y="0" type="line" name="ab01"/>
      <point x="551" y="0" type="line"/>
      <point x="551" y="294" type="line" smooth="yes"/>
      <point x="551" y="438"/>
      <point x="484" y="500"/>
      <point x="380" y="500" type="curve" smooth="yes" name="at01"/>
      <point x="287" y="500"/>
      <point x="210" y="432"/>
      <point x="196" y="335" type="curve"/>
      <point x="197" y="260" type="line"/>
    </contour>
    <contour>
      <point x="5.795" y="601" type="line"/>
      <point x="368.303" y="601" type="line"/>
      <point x="368.303" y="635" type="line"/>
      <point x="5.795" y="635" type="line"/>
    </contour>
  </outline>
</glyph>
<glyph name="l.ss11" format="2">
  <advance width="272"/>
  <anchor x="136" y="-20" name="bottom"/>
  <anchor x="136" y="750" name="top"/>
  <anchor x="232" y="700" name="topright"/>
  <outline>
    <contour>
      <point x="76" y="0" type="line"/>
      <point x="196" y="0" type="line"/>
      <point x="196" y="700" type="line"/>
      <point x="76" y="700" type="line"/>
    </contour>
  </outline>
</glyph>
<glyph name="ljecyr.ss08" format="2">
  <advance width="790"/>
  <outline>
    <contour>
      <point x="422" y="0" type="line"/>
      <point x="571" y="0" type="line" smooth="yes"/>
      <point x="694" y="0"/>
      <point x="740" y="64"/>
      <point x="740" y="154" type="curve" smooth="yes"/>
      <point x="740" y="244"/>
      <point x="690" y="305"/>
      <point x="559" y="305" type="curve" smooth="yes"/>
      <point x="368" y="305" type="line"/>
      <point x="368" y="215" type="line"/>
      <point x="546" y="215" type="line" smooth="yes"/>
      <point x="593" y="215"/>
      <point x="620" y="192"/>
      <point x="620" y="153" type="curve" smooth="yes"/>
      <point x="620" y="114"/>
      <point x="595" y="91"/>
      <point x="553" y="91" type="curve" smooth="yes"/>
      <point x="467" y="91" type="line"/>
    </contour>
    <contour>
      <point x="25" y="0" type="line"/>
      <point x="154" y="0" type="line"/>
      <point x="275" y="352" type="line"/>
      <point x="396" y="0" type="line"/>
      <point x="525" y="0" type="line"/>
      <point x="333" y="500" type="line"/>
      <point x="217" y="500" type="line"/>
    </contour>
  </outline>
</glyph>
<glyph name="one.osf.ss09" format="2">
  <advance width="544"/>
  <outline>
    <contour>
      <point x="231" y="0" type="line"/>
      <point x="351" y="0" type="line"/>
      <point x="351" y="548" type="line"/>
      <point x="237" y="548" type="line"/>
      <point x="237" y="464"/>
      <point x="167.8" y="408"/>
      <point x="58" y="408" type="curve"/>
      <point x="58" y="308" type="line"/>
      <point x="164.583" y="308"/>
      <point x="231" y="353.751"/>
      <point x="231" y="423" type="curve"/>
    </contour>
    <contour>
      <point x="51" y="0" type="line"/>
      <point x="493" y="0" type="line"/>
      <point x="493" y="100" type="line"/>
      <point x="51" y="100" type="line"/>
    </contour>
  </outline>
</glyph>
<glyph name="shchacyr.loclBGR" format="2">
  <advance width="964"/>
  <outline>
    <contour>
      <point x="856" y="500" type="line" name="ab01"/>
      <point x="736" y="500" type="line" name="sh01"/>
      <point x="736" y="0" type="line" name="av01"/>
      <point x="856" y="0" type="line"/>
    </contour>
    <contour>
      <point x="526" y="500" type="line" name="ab01"/>
      <point x="406" y="500" type="line"/>
      <point x="406" y="186" type="line" smooth="yes"/>
      <point x="406" y="42"/>
      <point x="470" y="-20"/>
      <point x="561" y="-20" type="curve" smooth="yes" name="at01"/>
      <point x="657" y="-20"/>
      <point x="731" y="48"/>
      <point x="744" y="145" type="curve"/>
      <point x="743" y="220" type="line"/>
      <point x="736" y="283" type="line" name="iv01"/>
      <point x="736" y="154.796"/>
      <point x="691" y="70"/>
      <point x="606" y="70" type="curve" smooth="yes" name="sv01"/>
      <point x="556" y="70"/>
      <point x="526" y="100.14"/>
      <point x="526" y="208.645" type="curve" smooth="yes"/>
    </contour>
    <contour>
      <point x="201" y="500" type="line" name="ab01"/>
      <point x="81" y="500" type="line"/>
      <point x="81" y="186" type="line" smooth="yes"/>
      <point x="81" y="42"/>
      <point x="145" y="-20"/>
      <point x="236" y="-20" type="curve" smooth="yes" name="at01"/>
      <point x="332" y="-20"/>
      <point x="406" y="48"/>
      <point x="419" y="145" type="curve"/>
      <point x="417" y="220" type="line"/>
      <point x="406" y="283" type="line" name="iv01"/>
      <point x="406" y="154.796"/>
      <point x="362" y="70"/>
      <point x="279" y="70" type="curve" smooth="yes" name="sv01"/>
      <point x="230" y="70"/>
      <point x="201" y="100.14"/>
      <point x="201" y="208.645" type="curve" smooth="yes"/>
    </contour>
    <contour>
      <point x="933" y="-140" type="line"/>
      <point x="933" y="52"/>
      <point x="915" y="89"/>
      <point x="795" y="89" type="curve"/>
      <point x="795" y="0" type="line"/>
      <point x="863" y="0"/>
      <point x="848" y="-82"/>
      <point x="848" y="-140" type="curve"/>
    </contour>
  </outline>
</glyph>
<glyph name="six.osf.ss12" format="2">
  <advance width="650"/>
  <outline>
    <contour>
      <point x="185" y="222" type="curve" smooth="yes"/>
      <point x="185" y="135"/>
      <point x="243" y="80"/>
      <point x="339" y="80" type="curve" smooth="yes"/>
      <point x="436" y="80"/>
      <point x="490" y="137"/>
      <point x="490" y="223" type="curve" smooth="yes"/>
      <point x="490" y="311"/>
      <point x="433" y="362"/>
      <point x="339" y="362" type="curve" smooth="yes"/>
      <point x="240" y="362"/>
      <point x="185" y="306"/>
    </contour>
    <contour>
      <point x="597" y="510" type="line"/>
      <point x="519" y="589"/>
      <point x="450" y="620"/>
      <point x="359" y="620" type="curve" smooth="yes"/>
      <point x="222" y="620"/>
      <point x="149" y="551"/>
      <point x="149" y="348" type="curve"/>
      <point x="180" y="416"/>
      <point x="254" y="456"/>
      <point x="354" y="456" type="curve" smooth="yes"/>
      <point x="501" y="456"/>
      <point x="610" y="371"/>
      <point x="610" y="224" type="curve" smooth="yes"/>
      <point x="610" y="87"/>
      <point x="515" y="-20"/>
      <point x="344" y="-20" type="curve" smooth="yes"/>
      <point x="155" y="-20"/>
      <point x="53" y="110"/>
      <point x="53" y="351" type="curve" smooth="yes"/>
      <point x="53" y="596"/>
      <point x="158" y="720"/>
      <point x="344" y="720" type="curve" smooth="yes"/>
      <point x="450" y="720"/>
      <point x="531" y="680"/>
      <point x="606" y="595" type="curve"/>
    </contour>
  </outline>
</glyph>
<glyph name="six.ss10" format="2">
  <advance width="667"/>
  <outline>
    <contour>
      <point x="185" y="222" type="curve" smooth="yes"/>
      <point x="185" y="135"/>
      <point x="243" y="80"/>
      <point x="339" y="80" type="curve" smooth="yes"/>
      <point x="436" y="80"/>
      <point x="490" y="137"/>
      <point x="490" y="223" type="curve" smooth="yes"/>
      <point x="490" y="311"/>
      <point x="433" y="362"/>
      <point x="339" y="362" type="curve" smooth="yes"/>
      <point x="240" y="362"/>
      <point x="185" y="306"/>
    </contour>
    <contour>
      <point x="575" y="465" type="line"/>
      <point x="499" y="579"/>
      <point x="441" y="619"/>
      <point x="352" y="619" type="curve" smooth="yes"/>
      <point x="220" y="619"/>
      <point x="149.01" y="531.98"/>
      <point x="149.01" y="347.99" type="curve"/>
      <point x="180.01" y="415.98"/>
      <point x="254" y="456"/>
      <point x="354" y="456" type="curve" smooth="yes"/>
      <point x="501" y="456"/>
      <point x="610" y="371"/>
      <point x="610" y="224" type="curve" smooth="yes"/>
      <point x="610" y="87"/>
      <point x="515" y="-20"/>
      <point x="344" y="-20" type="curve" smooth="yes"/>
      <point x="155.55" y="-20"/>
      <point x="52.6207" y="109.23"/>
      <point x="53" y="348.87" type="curve" smooth="yes"/>
      <point x="53.39" y="595.28"/>
      <point x="157.44" y="720"/>
      <point x="346" y="720" type="curve" smooth="yes"/>
      <point x="456" y="720"/>
      <point x="545" y="677"/>
      <point x="614" y="593" type="curve"/>
    </contour>
  </outline>
</glyph>
<glyph name="softcyr.loclBGR" format="2">
  <advance width="536"/>
  <anchor x="268" y="-20" name="bottom"/>
  <anchor x="268" y="520" name="top"/>
  <outline>
    <contour>
      <point x="115" y="235" type="line"/>
      <point x="282" y="235" type="line" smooth="yes"/>
      <point x="341" y="235"/>
      <point x="366" y="204.062"/>
      <point x="366" y="152.5" type="curve" smooth="yes"/>
      <point x="366" y="103"/>
      <point x="333.467" y="70"/>
      <point x="284.668" y="70" type="curve" smooth="yes"/>
      <point x="225.668" y="70"/>
      <point x="199.623" y="98.5137"/>
      <point x="199.668" y="146.037" type="curve" smooth="yes"/>
      <point x="200" y="500" type="line"/>
      <point x="80" y="500" type="line"/>
      <point x="79.6679" y="153.68" type="line" smooth="yes"/>
      <point x="79.5662" y="47.6"/>
      <point x="144.746" y="-20"/>
      <point x="279.873" y="-20" type="curve" smooth="yes"/>
      <point x="415" y="-20"/>
      <point x="486" y="49"/>
      <point x="486" y="157.277" type="curve" smooth="yes"/>
      <point x="486" y="262.369"/>
      <point x="415" y="325"/>
      <point x="297" y="325" type="curve" smooth="yes"/>
      <point x="115" y="325" type="line"/>
    </contour>
  </outline>
</glyph>
<glyph name="tbar.ss11" format="2">
  <advance width="353"/>
  <outline>
    <contour>
      <point x="94" y="0" type="line"/>
      <point x="214" y="0" type="line"/>
      <point x="214" y="410" type="line"/>
      <point x="324" y="410" type="line"/>
      <point x="324" y="500" type="line"/>
      <point x="214" y="500" type="line"/>
      <point x="214" y="620" type="line"/>
      <point x="94" y="620" type="line"/>
      <point x="94" y="500" type="line"/>
      <point x="19" y="500" type="line"/>
      <point x="19" y="410" type="line"/>
      <point x="94" y="410" type="line"/>
    </contour>
    <contour>
      <point x="13.6226" y="185.929" type="line"/>
      <point x="318.969" y="185.929" type="line"/>
      <point x="318.969" y="253.083" type="line"/>
      <point x="13.6226" y="253.083" type="line"/>
    </contour>
  </outline>
</glyph>
<glyph name="three.ss10" format="2">
  <advance width="550"/>
  <outline>
    <contour>
      <point x="192" y="402" type="line"/>
      <point x="321" y="402"/>
      <point x="369" y="458.936"/>
      <point x="369" y="523.391" type="curve" smooth="yes"/>
      <point x="369" y="581.401"/>
      <point x="331" y="619"/>
      <point x="260" y="619" type="curve" smooth="yes"/>
      <point x="185" y="619"/>
      <point x="123" y="579"/>
      <point x="49" y="465" type="curve"/>
      <point x="10" y="593" type="line"/>
      <point x="74" y="677"/>
      <point x="160" y="720"/>
      <point x="267" y="720" type="curve" smooth="yes"/>
      <point x="411" y="720"/>
      <point x="490" y="635.472"/>
      <point x="490" y="518.011" type="curve" smooth="yes"/>
      <point x="490" y="388.475"/>
      <point x="394" y="327"/>
      <point x="192" y="327" type="curve"/>
    </contour>
    <contour>
      <point x="59" y="235" type="line"/>
      <point x="133" y="121"/>
      <point x="195" y="81"/>
      <point x="271" y="81" type="curve" smooth="yes"/>
      <point x="345" y="81"/>
      <point x="389" y="121.627"/>
      <point x="389" y="185.774" type="curve" smooth="yes"/>
      <point x="389" y="256.336"/>
      <point x="335" y="313"/>
      <point x="192" y="313" type="curve"/>
      <point x="192" y="378" type="line"/>
      <point x="408" y="378"/>
      <point x="510" y="313.979"/>
      <point x="510" y="183.802" type="curve" smooth="yes"/>
      <point x="510" y="65.3619"/>
      <point x="426" y="-20"/>
      <point x="278" y="-20" type="curve" smooth="yes"/>
      <point x="170" y="-20"/>
      <point x="84" y="23"/>
      <point x="20" y="107" type="curve"/>
    </contour>
  </outline>
</glyph>
<glyph name="y.ss04" format="2">
  <advance width="565"/>
  <anchor x="438" y="0" name="bottom"/>
  <anchor x="283" y="520" name="top"/>
  <outline>
    <contour>
      <point x="54" y="-198" type="line"/>
      <point x="99" y="-212"/>
      <point x="113" y="-221"/>
      <point x="178" y="-221" type="curve" smooth="yes" name="dv01"/>
      <point x="270" y="-221"/>
      <point x="308" y="-163"/>
      <point x="337" y="-78" type="curve" smooth="yes"/>
      <point x="536" y="500" type="line" name="av01"/>
      <point x="409" y="500" type="line"/>
      <point x="251" y="-17" type="line" smooth="yes"/>
      <point x="230.667" y="-83.5325"/>
      <point x="204" y="-128"/>
      <point x="148" y="-128" type="curve" smooth="yes" name="dv02"/>
      <point x="131" y="-128"/>
      <point x="98" y="-123"/>
      <point x="76" y="-114" type="curve"/>
    </contour>
    <contour>
      <point x="202" y="0" type="line"/>
      <point x="309" y="0" type="line"/>
      <point x="157" y="500" type="line" name="av02"/>
      <point x="30" y="500" type="line"/>
    </contour>
  </outline>
</glyph>
<glyph name="yacyr.ss08" format="2">
  <advance width="570"/>
  <anchor x="285" y="-20" name="bottom"/>
  <anchor x="285" y="520" name="top"/>
  <outline>
    <contour>
      <point x="367" y="0" type="line"/>
      <point x="487" y="0" type="line"/>
      <point x="487" y="500" type="line"/>
      <point x="275" y="500" type="line" smooth="yes"/>
      <point x="141" y="500"/>
      <point x="63" y="439"/>
      <point x="63" y="336" type="curve" smooth="yes"/>
      <point x="63" y="236"/>
      <point x="139" y="183"/>
      <point x="284" y="183" type="curve" smooth="yes"/>
      <point x="367" y="183" type="line"/>
    </contour>
    <contour>
      <point x="367" y="273" type="line"/>
      <point x="269" y="273" type="line" smooth="yes"/>
      <point x="214" y="273"/>
      <point x="184" y="296"/>
      <point x="184" y="340" type="curve" smooth="yes"/>
      <point x="184" y="387"/>
      <point x="214" y="410"/>
      <point x="269" y="410" type="curve" smooth="yes"/>
      <point x="367" y="410" type="line"/>
    </contour>
    <contour>
      <point x="179" y="0" type="line"/>
      <point x="206" y="36"/>
      <point x="176" y="105"/>
      <point x="202" y="156" type="curve" smooth="yes"/>
      <point x="217" y="185"/>
      <point x="261" y="183"/>
      <point x="280" y="183" type="curve"/>
      <point x="209" y="225" type="line"/>
      <point x="159" y="214"/>
      <point x="108" y="213"/>
      <point x="82" y="162" type="curve" smooth="yes"/>
      <point x="56" y="111"/>
      <point x="86" y="36"/>
      <point x="59" y="0" type="curve"/>
    </contour>
  </outline>
</glyph>
<glyph name="zhecyr.loclBGR" format="2">
  <advance width="890"/>
  <anchor x="445" y="-20" name="bottom"/>
  <anchor x="445" y="750" name="top"/>
  <outline>
    <contour>
      <point x="484" y="222" type="line"/>
      <point x="256" y="222" type="line" name="iv01"/>
      <point x="157" y="0" type="line" name="ab02"/>
      <point x="21" y="0" type="line"/>
      <point x="161" y="263" type="line"/>
      <point x="35" y="500" type="line" name="av02"/>
      <point x="160" y="500" type="line"/>
      <point x="248" y="312" type="line" name="iv02"/>
      <point x="491" y="312" type="line"/>
    </contour>
    <contour>
      <point x="385" y="750" type="line"/>
      <point x="505" y="750" type="line" name="ab01"/>
      <point x="505" y="0" type="line" name="ab02"/>
      <point x="385" y="0" type="line" name="sv03"/>
    </contour>
    <contour>
      <point x="399" y="312" type="line"/>
      <point x="642" y="312" type="line" name="iv02"/>
      <point x="730" y="500" type="line"/>
      <point x="855" y="500" type="line" name="av02"/>
      <point x="729" y="263" type="line"/>
      <point x="869" y="0" type="line"/>
      <point x="733" y="0" type="line" name="ab02"/>
      <point x="634" y="222" type="line" name="iv01"/>
      <point x="406" y="222" type="line"/>
    </contour>
  </outline>
</glyph>
